<?xml version="1.0" encoding="UTF-8"?>
<svg width="16px" height="16px" viewBox="0 0 16 16" version="1.1" xmlns="http://www.w3.org/2000/svg" xmlns:xlink="http://www.w3.org/1999/xlink">
    <title>icon/16px/聊天记录</title>
    <g id="控件" stroke="none" stroke-width="1" fill="none" fill-rule="evenodd">
        <g id="icon/16px/聊天记录">
            <rect id="R" fill="#36B39E" x="0" y="0" width="16" height="16" rx="8"></rect>
            <path d="M8.2,11.64 C8.96,11.64 9.66,11.49 10.28,11.21 C10.96,10.89 11.47,10.41 11.82,9.79 L10.93,9.79 C10.67,10.15 10.33,10.44 9.9,10.65 C9.43,10.86 8.86,10.97 8.2,10.97 C7.22,10.97 6.47,10.73 5.94,10.26 C5.36,9.74 5.08,8.99 5.08,8 C5.08,7.1 5.35,6.37 5.9,5.8 C6.45,5.22 7.18,4.93 8.08,4.93 C8.92,4.93 9.59,5.17 10.09,5.65 C10.54,6.09 10.77,6.64 10.77,7.28 C10.77,7.89 10.6,8.41 10.27,8.84 C9.99,9.21 9.7,9.4 9.41,9.4 C9.25,9.4 9.18,9.33 9.18,9.19 C9.18,9.09 9.22,8.87 9.32,8.53 L10.01,6.05 L9.17,6.05 L9.03,6.56 C8.86,6.09 8.55,5.86 8.11,5.86 C7.51,5.86 6.99,6.13 6.56,6.68 C6.12,7.22 5.9,7.84 5.9,8.54 C5.9,8.99 6.03,9.36 6.31,9.66 C6.59,9.96 6.95,10.11 7.39,10.11 C7.87,10.11 8.27,9.89 8.57,9.46 C8.63,9.88 8.87,10.09 9.29,10.09 C9.85,10.09 10.36,9.8 10.81,9.22 C11.25,8.62 11.48,7.97 11.48,7.27 C11.48,6.44 11.21,5.74 10.67,5.18 C10.05,4.54 9.21,4.22 8.13,4.22 C6.93,4.22 5.96,4.59 5.22,5.35 C4.52,6.05 4.18,6.93 4.18,7.97 C4.18,9.09 4.53,9.99 5.24,10.65 C5.95,11.31 6.94,11.64 8.2,11.64 Z M7.46,9.36 C7.24,9.36 7.07,9.29 6.97,9.15 C6.86,9.01 6.81,8.82 6.81,8.58 C6.81,8.08 6.95,7.64 7.25,7.25 C7.54,6.86 7.88,6.67 8.27,6.67 C8.42,6.67 8.55,6.72 8.66,6.84 C8.76,6.94 8.82,7.06 8.82,7.22 C8.82,7.28 8.78,7.46 8.7,7.74 L8.5,8.48 C8.42,8.74 8.28,8.95 8.06,9.12 C7.86,9.28 7.66,9.36 7.46,9.36 Z" id="@" fill="#FFFFFF" fill-rule="nonzero"></path>
        </g>
    </g>
</svg>