<?xml version="1.0" encoding="UTF-8"?>
<svg width="56px" height="56px" viewBox="0 0 56 56" version="1.1" xmlns="http://www.w3.org/2000/svg" xmlns:xlink="http://www.w3.org/1999/xlink">
    <title>img/默认头像</title>
    <g id="控件" stroke="none" stroke-width="1" fill="none" fill-rule="evenodd">
        <g id="img/默认头像">
            <g id="位图" fill="#E6E6E6">
                <circle id="蒙版" cx="28" cy="28" r="28"></circle>
                <rect id="矩形" x="0" y="0" width="56" height="56"></rect>
            </g>
            <g id="头像_avatar" transform="translate(15.000000, 15.000000)" fill="#FFFFFF">
                <path d="M0.00254755739,25.4739105 C0.00254755739,25.7644263 0.244997379,26 0.544092949,26 L25.4541889,26 C25.7532571,26 25.9957411,25.7644947 25.9957411,25.4740473 L25.9957411,24.8458052 C26.0081937,24.6564842 26.0335095,23.7116578 25.4107415,22.667142 C25.018005,22.0085209 24.448058,21.4395314 23.7166375,20.9760472 C22.8318171,20.4153366 21.7062232,20.0090524 20.3447821,19.7644471 C20.3347242,19.7631471 19.3252407,19.6293156 18.2910573,19.3652103 C16.4901481,18.9052155 16.3327113,18.4981103 16.331685,18.4941418 C16.3210798,18.4539103 16.3057535,18.4152524 16.2861166,18.3789208 C16.2714061,18.3029734 16.2350062,18.0171787 16.3045903,17.2514102 C16.4812533,15.3064733 17.5245368,14.1569996 18.3628309,13.2334522 C18.6272097,12.9421837 18.8768779,12.6670627 19.0692093,12.3972785 C19.8986771,11.2334363 19.9756508,9.91003626 19.9791402,9.82799941 C19.9791402,9.66180467 19.9600508,9.52516782 19.9192034,9.39852045 C19.8377825,9.14508886 19.6845878,8.98717306 19.5727195,8.87188359 L19.5719669,8.87106253 C19.5437774,8.84205201 19.5171616,8.81454674 19.4954038,8.78929937 C19.4871248,8.779652 19.4650933,8.75413095 19.4851406,8.62310463 C19.5587616,8.14080461 19.6029616,7.73698355 19.6241721,7.35225195 C19.6619405,6.66680982 19.6914299,5.64172557 19.5146301,4.64407817 C19.4928038,4.47370974 19.4553091,4.29376237 19.3969459,4.0793992 C19.2101566,3.39241076 18.9100621,2.80506389 18.4931045,2.32032124 C18.4213993,2.24230756 16.6780321,0.405599068 11.6170674,0.0287427382 C10.9172574,-0.0233598953 10.2254527,0.00470642153 9.54445844,0.0395122123 C9.38031646,0.0476269494 9.15555346,0.0587658972 8.9452273,0.113263268 C8.42269611,0.248620641 8.2832541,0.5798196 8.24664887,0.765179081 C8.18595944,1.07221172 8.29262778,1.3110491 8.36316983,1.46912226 L8.36316983,1.46913595 L8.36316983,1.46915647 C8.37343299,1.49207069 8.38609087,1.52040385 8.36399089,1.59418911 C8.24651203,1.77612754 8.0617069,1.94015333 7.87327546,2.09555123 C7.81881234,2.14183808 6.54973959,3.23609601 6.47995017,4.66556238 C6.29179241,5.75270453 6.30602398,7.44653617 6.52852908,8.61722042 C6.54146065,8.68187832 6.56055011,8.77759937 6.52955539,8.84225727 L6.52955539,8.84225727 C6.29028715,9.05668886 6.01906629,9.29972044 6.0197505,9.8542731 C6.02262419,9.91003626 6.09959781,11.2334363 6.92913405,12.3972785 C7.12126022,12.6668574 7.3707232,12.9417732 7.63489669,13.2328364 L7.63551247,13.2334522 L7.63551247,13.2335206 C8.4738066,14.157068 9.51702162,15.3064733 9.69375307,17.2513418 C9.76326881,18.0171102 9.72686883,18.3029734 9.71215832,18.3788524 C9.69252149,18.4151839 9.67719518,18.4538418 9.66665835,18.4940734 C9.66556361,18.4980418 9.50874268,18.9038471 7.71597557,19.362884 C6.6817237,19.6277419 5.66355077,19.7630787 5.63317184,19.7674577 C4.31011492,19.990784 3.19141785,20.3869419 2.30819165,20.9447103 C1.57924798,21.4051156 1.00821313,21.9751314 0.610926584,22.6389525 C-0.023828739,23.6996157 -0.00666875163,24.6655842 0.00254755739,24.8419052 L0.00254755739,25.4739105 Z" id="路径"></path>
            </g>
        </g>
    </g>
</svg>