<?xml version="1.0" encoding="UTF-8"?>
<svg width="24px" height="24px" viewBox="0 0 24 24" version="1.1" xmlns="http://www.w3.org/2000/svg" xmlns:xlink="http://www.w3.org/1999/xlink">
    <title>icon/24px/内容素材</title>
    <g id="控件" stroke="none" stroke-width="1" fill="none" fill-rule="evenodd">
        <g id="icon/24px/内容素材" fill="#FFFFFF" fill-rule="nonzero">
            <g>
                <rect id="矩形" fill-opacity="0.01" x="0" y="0" width="24" height="24"></rect>
                <path d="M12,3.08333333 C16.9245411,3.08333333 20.9166667,7.0754589 20.9166667,12 C20.9166667,16.9245411 16.9245411,20.9166667 12,20.9166667 C7.0754589,20.9166667 3.08333333,16.9245411 3.08333333,12 C3.08333333,7.0754589 7.0754589,3.08333333 12,3.08333333 Z M17,11.4166667 C16.6778339,11.4166667 16.4166667,11.6778339 16.4166667,12 C16.4166667,14.4392506 14.4392506,16.4166667 12,16.4166667 C11.6778339,16.4166667 11.4166667,16.6778339 11.4166667,17 C11.4166667,17.3221661 11.6778339,17.5833333 12,17.5833333 C15.0835828,17.5833333 17.5833333,15.0835828 17.5833333,12 C17.5833333,11.6778339 17.3221661,11.4166667 17,11.4166667 Z" id="形状结合"></path>
            </g>
        </g>
    </g>
</svg>