<?xml version="1.0" encoding="UTF-8"?>
<svg width="24px" height="24px" viewBox="0 0 24 24" version="1.1" xmlns="http://www.w3.org/2000/svg" xmlns:xlink="http://www.w3.org/1999/xlink">
    <title>icon/24px/变更</title>
    <g id="控件" stroke="none" stroke-width="1" fill="none" fill-rule="evenodd">
        <g id="icon/24px/变更备份" fill="#FFFFFF" fill-rule="nonzero">
            <g id="icon_change2">
                <rect id="矩形" fill-opacity="0.01" x="0" y="0" width="24" height="24"></rect>
                <path d="M19,1.5 C19.5128358,1.5 19.9355072,1.88604019 19.9932723,2.38337887 L20,2.5 L20,15.5 C20,16.0128358 19.6139598,16.4355072 19.1166211,16.4932723 L19,16.5 L9,16.5 C8.44771525,16.5 8,16.0522847 8,15.5 C8,14.9871642 8.38604019,14.5644928 8.88337887,14.5067277 L9,14.5 L18,14.5 L18,2.5 C18,1.98716416 18.3860402,1.56449284 18.8833789,1.50672773 L19,1.5 Z" id="路径"></path>
                <path d="M15,9.5 C15.5522847,9.5 16,9.94771525 16,10.5 C16,11.0128358 15.6139598,11.4355072 15.1166211,11.4932723 L15,11.5 L6,11.5 L6,21.5 C6,22.0128358 5.61395981,22.4355072 5.11662113,22.4932723 L5,22.5 C4.48716416,22.5 4.06449284,22.1139598 4.00672773,21.6166211 L4,21.5 L4,10.5 C4,9.98716416 4.38604019,9.56449284 4.88337887,9.50672773 L5,9.5 L15,9.5 Z" id="路径"></path>
                <path d="M18.2928932,1.79289322 C18.6533772,1.43240926 19.2206082,1.40467972 19.6128994,1.70970461 L19.7071068,1.79289322 L22.7071068,4.79289322 C23.0976311,5.18341751 23.0976311,5.81658249 22.7071068,6.20710678 C22.3466228,6.56759074 21.7793918,6.59532028 21.3871006,6.29029539 L21.2928932,6.20710678 L19,3.915 L16.7071068,6.20710678 C16.3466228,6.56759074 15.7793918,6.59532028 15.3871006,6.29029539 L15.2928932,6.20710678 C14.9324093,5.84662282 14.9046797,5.27939176 15.2097046,4.88710056 L15.2928932,4.79289322 L18.2928932,1.79289322 Z" id="路径"></path>
                <path d="M1.29289322,17.7928932 C1.65337718,17.4324093 2.22060824,17.4046797 2.61289944,17.7097046 L2.70710678,17.7928932 L5,20.085 L7.29289322,17.7928932 C7.65337718,17.4324093 8.22060824,17.4046797 8.61289944,17.7097046 L8.70710678,17.7928932 C9.06759074,18.1533772 9.09532028,18.7206082 8.79029539,19.1128994 L8.70710678,19.2071068 L5.70710678,22.2071068 C5.34662282,22.5675907 4.77939176,22.5953203 4.38710056,22.2902954 L4.29289322,22.2071068 L1.29289322,19.2071068 C0.902368927,18.8165825 0.902368927,18.1834175 1.29289322,17.7928932 Z" id="路径"></path>
            </g>
        </g>
    </g>
</svg>