<?xml version="1.0" encoding="UTF-8"?>
<svg width="12px" height="12px" viewBox="0 0 12 12" version="1.1" xmlns="http://www.w3.org/2000/svg" xmlns:xlink="http://www.w3.org/1999/xlink">
    <title>icon/12px/客户</title>
    <g id="控件" stroke="none" stroke-width="1" fill="none" fill-rule="evenodd">
        <g id="icon/12px/客户" fill="#FFFFFF" fill-rule="nonzero">
            <path d="M6,0.5 C7.33624175,0.5 8.41947972,1.58323797 8.41947972,2.91947972 L8.41947972,3.56441623 C8.41947972,4.24806442 8.13611025,4.86512852 7.68008671,5.30566739 C9.67110563,6.01671994 11.0001246,7.90269948 11,10.0168783 C11,10.6401363 10.4944255,11.1457107 9.87116754,11.1457107 L2.12883246,11.1457107 C1.50539551,11.1457107 1,10.6403152 1,10.0168783 C0.999875427,7.90269948 2.32889437,6.01671994 4.31991329,5.30566739 C3.84667461,4.85011459 3.5796546,4.22128947 3.58052028,3.56441623 L3.58052028,2.91947972 C3.58052028,1.58323797 4.66375825,0.5 6,0.5 Z M7,6.2 L5,6.2 L5.00843215,6.33045481 C5.04737137,6.62933644 5.21828437,6.88675201 5.46078222,7.0423126 L5.46078222,7.0423126 L5.04230133,9.54619202 C5.01575491,9.70547052 5.06776444,9.86776444 5.1819449,9.9819449 L5.1819449,9.9819449 L5.64644661,10.4464466 C5.84170876,10.6417088 6.15829124,10.6417088 6.35355339,10.4464466 L6.35355339,10.4464466 L6.8180551,9.9819449 C6.93223556,9.86776444 6.98424509,9.70547052 6.95769867,9.54619202 L6.95769867,9.54619202 L6.54025923,7.04164361 C6.81681815,6.86375001 7,6.55326721 7,6.2 L7,6.2 Z" id="形状结合"></path>
        </g>
    </g>
</svg>