<?xml version="1.0" encoding="UTF-8"?>
<svg width="13px" height="12px" viewBox="0 0 13 12" version="1.1" xmlns="http://www.w3.org/2000/svg" xmlns:xlink="http://www.w3.org/1999/xlink">
    <title>icon/12px/线索</title>
    <g id="控件" stroke="none" stroke-width="1" fill="none" fill-rule="evenodd">
        <g id="icon/12px/线索" fill-rule="nonzero">
            <g id="icon_xiansuo" transform="translate(-1.000000, -1.000000)">
                <rect id="矩形" x="0" y="0" width="14" height="14"></rect>
                <path d="M10.7916667,1.55833333 C9.8804017,1.55833333 9.14166667,2.29706633 9.14166667,3.20833333 C9.14166667,4.11959652 9.88040348,4.85833333 10.7916667,4.85833333 C11.7029299,4.85833333 12.4416667,4.11959652 12.4416667,3.20833333 C12.4416667,2.29706633 11.7029316,1.55833333 10.7916667,1.55833333 Z" id="路径" fill="#FFFFFF"></path>
                <path d="M3.20833333,9.14166667 C2.29706633,9.14166667 1.55833333,9.8804017 1.55833333,10.7916667 C1.55833333,11.7029316 2.29706633,12.4416667 3.20833333,12.4416667 C4.11959652,12.4416667 4.85833333,11.7029299 4.85833333,10.7916667 C4.85833333,9.88040348 4.11959652,9.14166667 3.20833333,9.14166667 Z" id="路径" fill="#FFFFFF"></path>
                <path d="M5.10539167,1.25 C6.37407456,1.25 7.41255349,2.23562865 7.49689082,3.4829409 L7.50242083,3.64705833 L7.50242083,10.3553917 C7.50242083,11.1256068 8.12682069,11.75 8.89705833,11.75 C9.62196355,11.75 10.2177037,11.1969013 10.2852825,10.4897003 L10.2916667,10.3553917 L10.2916667,4.66666667 C10.2916667,4.39052429 10.5155243,4.16666667 10.7916667,4.16666667 C11.0371266,4.16666667 11.241275,4.34354183 11.283611,4.57679103 L11.2916667,4.66666667 L11.2916667,10.3553917 C11.2916667,11.6778882 10.2195549,12.75 8.89705833,12.75 C7.62964333,12.75 6.59219868,11.7653748 6.50794534,10.5193409 L6.50242083,10.3553917 L6.50242083,3.64705833 C6.50242083,2.87548082 5.87694732,2.25 5.10539167,2.25 C4.37919731,2.25 3.7824244,2.80405619 3.7147286,3.51251123 L3.70833333,3.64705833 L3.70833333,9.33333333 C3.70833333,9.60947571 3.48447571,9.83333333 3.20833333,9.83333333 C2.96287344,9.83333333 2.75872496,9.65645817 2.716389,9.42320897 L2.70833333,9.33333333 L2.70833333,3.64705833 C2.70833333,2.32319299 3.78152518,1.25 5.10539167,1.25 Z" id="路径" fill="#FFFFFF"></path>
            </g>
        </g>
    </g>
</svg>