<?xml version="1.0" encoding="UTF-8"?>
<svg width="24px" height="24px" viewBox="0 0 24 24" version="1.1" xmlns="http://www.w3.org/2000/svg" xmlns:xlink="http://www.w3.org/1999/xlink">
    <title>icon/24px/删除</title>
    <g id="控件" stroke="none" stroke-width="1" fill="none" fill-rule="evenodd">
        <g id="icon/24px/删除备份" fill="#FFFFFF" fill-rule="nonzero">
            <g id="删除_delete" transform="translate(1.000000, 1.995098)">
                <rect id="矩形" fill-opacity="0.01" x="0" y="0.004902" width="22" height="22"></rect>
                <path d="M17.875,3.58823533 L4.125,3.58823533 C3.57271525,3.58823533 3.125,4.03595058 3.125,4.58823533 L3.125,20.1715687 C3.125,20.7238534 3.57271525,21.1715687 4.125,21.1715687 L17.875,21.1715687 C18.4272847,21.1715687 18.875,20.7238534 18.875,20.1715687 L18.875,4.58823533 C18.875,4.03595058 18.4272847,3.58823533 17.875,3.58823533 Z M16.875,5.588 L16.875,19.171 L5.125,19.171 L5.125,5.588 L16.875,5.588 Z" id="路径"></path>
                <path d="M9.16666667,8.17156867 C9.67950251,8.17156867 10.1021738,8.55760886 10.1599389,9.05494754 L10.1666667,9.17156867 L10.1666667,15.129902 C10.1666667,15.6821867 9.71895142,16.129902 9.16666667,16.129902 C8.65383083,16.129902 8.23115951,15.7438618 8.1733944,15.2465231 L8.16666667,15.129902 L8.16666667,9.17156867 C8.16666667,8.61928392 8.61438192,8.17156867 9.16666667,8.17156867 Z" id="路径"></path>
                <path d="M12.8333333,8.17156867 C13.3461692,8.17156867 13.7688405,8.55760886 13.8266056,9.05494754 L13.8333333,9.17156867 L13.8333333,15.129902 C13.8333333,15.6821867 13.3856181,16.129902 12.8333333,16.129902 C12.3204975,16.129902 11.8978262,15.7438618 11.8400611,15.2465231 L11.8333333,15.129902 L11.8333333,9.17156867 C11.8333333,8.61928392 12.2810486,8.17156867 12.8333333,8.17156867 Z" id="路径"></path>
                <path d="M20.1666667,3.58823533 C20.7189514,3.58823533 21.1666667,4.03595058 21.1666667,4.58823533 C21.1666667,5.10107117 20.7806265,5.52374249 20.2832878,5.5815076 L20.1666667,5.58823533 L1.83333333,5.58823533 C1.28104858,5.58823533 0.833333333,5.14052008 0.833333333,4.58823533 C0.833333333,4.07539949 1.21937352,3.65272817 1.71671221,3.59496306 L1.83333333,3.58823533 L20.1666667,3.58823533 Z" id="路径"></path>
                <path d="M16.0686275,-0.5 C16.6209122,-0.5 17.0686275,-0.0522847498 17.0686275,0.5 C17.0686275,1.01283584 16.6825873,1.43550716 16.1852486,1.49327227 L16.0686275,1.5 L5.71568627,1.5 C5.16340152,1.5 4.71568627,1.05228475 4.71568627,0.5 C4.71568627,-0.0128358391 5.10172646,-0.435507161 5.59906515,-0.493272269 L5.71568627,-0.5 L16.0686275,-0.5 Z" id="路径备份"></path>
            </g>
        </g>
    </g>
</svg>