<?xml version="1.0" encoding="UTF-8"?>
<svg width="24px" height="24px" viewBox="0 0 24 24" version="1.1" xmlns="http://www.w3.org/2000/svg" xmlns:xlink="http://www.w3.org/1999/xlink">
    <title>icon/24px/分配</title>
    <g id="控件" stroke="none" stroke-width="1" fill="none" fill-rule="evenodd">
        <g id="icon/24px/分配备份" fill="#FFFFFF" fill-rule="nonzero">
            <g id="icon/40px/share" transform="translate(2.500000, 2.500000)">
                <path d="M9,4.39 L8.74797043,4.40736039 C1.98407798,4.94703247 -1,9.99041335 -1,19 C-1,20.0959975 0.50885389,20.3936564 0.925080916,19.3797701 L1.00159417,19.2056848 L1.11390276,18.9729899 L1.3499909,18.5259326 C1.38075551,18.4702909 1.41303582,18.4127727 1.44683669,18.3534911 C1.90250166,17.5543249 2.46083568,16.7542988 3.12219231,16.0107617 L3.34691762,15.764508 C4.85856896,14.1504839 6.64030068,13.0930275 8.71780162,12.7853761 L9,12.748 L9,17.0512821 C9,17.9223054 10.036207,18.3769407 10.6771474,17.7871295 L19.6771474,9.50507821 C20.0992976,9.11660378 20.1087603,8.45336101 19.6978647,8.05300118 L10.6978647,-0.716229588 C10.0642472,-1.3336005 9,-0.884656991 9,0 L9,4.39 Z M11,2.37 L17.545,8.748 L11,14.771 L11,11.6923077 C11,11.1400229 10.5522847,10.6923077 10,10.6923077 C6.62104523,10.6923077 3.83442328,12.2007355 1.62780769,14.681546 L1.30941317,15.0513499 L1.217,15.165 L1.23452666,15.0315781 C2.00981008,9.16483661 4.74506823,6.35897436 10,6.35897436 C10.5522847,6.35897436 11,5.91125911 11,5.35897436 L11,2.37 Z" id="路径"></path>
            </g>
        </g>
    </g>
</svg>