<?xml version="1.0" encoding="UTF-8"?>
<svg width="24px" height="24px" viewBox="0 0 24 24" version="1.1" xmlns="http://www.w3.org/2000/svg" xmlns:xlink="http://www.w3.org/1999/xlink">
    <title>icon/24px/放弃</title>
    <g id="控件" stroke="none" stroke-width="1" fill="none" fill-rule="evenodd">
        <g id="icon/24px/放弃备份" fill="#FFFFFF" fill-rule="nonzero">
            <g id="icon_clear">
                <rect id="矩形" fill-opacity="0.01" x="0" y="0" width="24" height="24"></rect>
                <path d="M10,1.95698 L9.88337887,1.96370773 C9.38604019,2.02147284 9,2.44414416 9,2.95698 L9,5.957 L2.5,5.957 C1.94771525,5.957 1.5,6.40471525 1.5,6.957 L1.5,10.957 C1.5,11.5092847 1.94771525,11.957 2.5,11.957 L21.5,11.957 C22.0522847,11.957 22.5,11.5092847 22.5,10.957 L22.5,6.957 L22.4932723,6.84037887 C22.4355072,6.34304019 22.0128358,5.957 21.5,5.957 L15,5.957 L15,2.95698 C15,2.40469525 14.5522847,1.95698 14,1.95698 L10,1.95698 Z M13,3.956 L13,6.957 L13.0067277,7.07362113 C13.0644928,7.57095981 13.4871642,7.957 14,7.957 L20.5,7.957 L20.5,9.957 L3.5,9.957 L3.5,7.957 L10,7.957 L10.1166211,7.95027227 C10.6139598,7.89250716 11,7.46983584 11,6.957 L11,3.956 L13,3.956 Z" id="路径"></path>
                <path d="M20,10 L4,10 C3.44771525,10 3,10.4477153 3,11 L3,20 C3,20.5522847 3.44771525,21 4,21 L20,21 C20.5522847,21 21,20.5522847 21,20 L21,11 C21,10.4477153 20.5522847,10 20,10 Z M19,12 L19,19 L5,19 L5,12 L19,12 Z" id="路径"></path>
                <path d="M8,15.957 C8.51283584,15.957 8.93550716,16.3430402 8.99327227,16.8403789 L9,16.957 L9,19.94875 C9,20.5010347 8.55228475,20.94875 8,20.94875 C7.48716416,20.94875 7.06449284,20.5627098 7.00672773,20.0653711 L7,19.94875 L7,16.957 C7,16.4047153 7.44771525,15.957 8,15.957 Z" id="路径"></path>
                <path d="M12,15.94875 C12.5128358,15.94875 12.9355072,16.3347902 12.9932723,16.8321289 L13,16.94875 L13,19.94875 C13,20.5010347 12.5522847,20.94875 12,20.94875 C11.4871642,20.94875 11.0644928,20.5627098 11.0067277,20.0653711 L11,19.94875 L11,16.94875 C11,16.3964653 11.4477153,15.94875 12,15.94875 Z" id="路径"></path>
                <path d="M16,15.957 C16.5128358,15.957 16.9355072,16.3430402 16.9932723,16.8403789 L17,16.957 L17,19.94875 C17,20.5010347 16.5522847,20.94875 16,20.94875 C15.4871642,20.94875 15.0644928,20.5627098 15.0067277,20.0653711 L15,19.94875 L15,16.957 C15,16.4047153 15.4477153,15.957 16,15.957 Z" id="路径"></path>
                <path d="M18,19 C18.5522847,19 19,19.4477153 19,20 C19,20.5128358 18.6139598,20.9355072 18.1166211,20.9932723 L18,21 L6,21 C5.44771525,21 5,20.5522847 5,20 C5,19.4871642 5.38604019,19.0644928 5.88337887,19.0067277 L6,19 L18,19 Z" id="路径"></path>
            </g>
        </g>
    </g>
</svg>