<?xml version="1.0" encoding="UTF-8"?>
<svg width="24px" height="24px" viewBox="0 0 24 24" version="1.1" xmlns="http://www.w3.org/2000/svg" xmlns:xlink="http://www.w3.org/1999/xlink">
    <title>icon/24px/话术库</title>
    <g id="控件" stroke="none" stroke-width="1" fill="none" fill-rule="evenodd">
        <g id="icon/24px/话术库">
            <rect id="矩形" fill-opacity="0.01" fill="#FFFFFF" fill-rule="nonzero" x="0" y="0" width="24" height="24"></rect>
            <line x1="12" y1="18" x2="12" y2="15" id="路径" stroke="#FFFFFF" stroke-width="1.5" stroke-linecap="round" stroke-linejoin="round"></line>
            <line x1="10" y1="20" x2="3" y2="20" id="路径" stroke="#FFFFFF" stroke-width="1.5" stroke-linecap="round" stroke-linejoin="round"></line>
            <line x1="14" y1="20" x2="21" y2="20" id="路径" stroke="#FFFFFF" stroke-width="1.5" stroke-linecap="round" stroke-linejoin="round"></line>
            <path d="M14,20 C14,21.10455 13.10455,22 12,22 C10.89545,22 10,21.10455 10,20 C10,18.89545 10.89545,18 12,18 C13.10455,18 14,18.89545 14,20 Z" id="路径" stroke="#FFFFFF" stroke-width="1.16666667" fill="#FFFFFF" stroke-linecap="round" stroke-linejoin="round"></path>
            <path d="M18.5,8.5 C18.5,12.08985 15.58985,15 12,15 C8.41015,15 5.5,12.08985 5.5,8.5 M18.5,8.5 C18.5,4.91015 15.58985,2 12,2 C8.41015,2 5.5,4.91015 5.5,8.5 M18.5,8.5 L5.5,8.5" id="形状" stroke="#FFFFFF" stroke-width="1.5" stroke-linecap="round" stroke-linejoin="round"></path>
            <path d="M14.5,8.5 C14.5,12.08985 13.3807,15 12,15 C10.6193,15 9.5,12.08985 9.5,8.5 C9.5,4.91015 10.6193,2 12,2 C13.3807,2 14.5,4.91015 14.5,8.5 Z" id="路径" stroke="#FFFFFF" fill="#FFFFFF" stroke-linecap="round" stroke-linejoin="round"></path>
            <line x1="18.5" y1="8.5" x2="5.5" y2="8.5" id="路径" stroke="#FFFFFF" stroke-width="1.5" stroke-linecap="round" stroke-linejoin="round"></line>
        </g>
    </g>
</svg>