<?xml version="1.0" encoding="UTF-8"?>
<svg width="20px" height="20px" viewBox="0 0 20 20" version="1.1" xmlns="http://www.w3.org/2000/svg" xmlns:xlink="http://www.w3.org/1999/xlink">
    <title>icon/20px/商机备份</title>
    <g id="控件" stroke="none" stroke-width="1" fill="none" fill-rule="evenodd">
        <g id="icon/20px/商机备份">
            <rect id="R" fill="#FEF7E5" x="0" y="0" width="20" height="20" rx="10"></rect>
            <g id="人群_peoples" transform="translate(4.500000, 4.500000)">
                <rect id="矩形" fill-opacity="0.01" fill="#FFFFFF" fill-rule="nonzero" x="0" y="0" width="11" height="11"></rect>
                <path d="M4.35416667,4.58333333 C5.240125,4.58333333 5.95833333,3.865125 5.95833333,2.97916667 C5.95833333,2.09321062 5.240125,1.375 4.35416667,1.375 C3.46820833,1.375 2.75,2.09321062 2.75,2.97916667 C2.75,3.865125 3.46820833,4.58333333 4.35416667,4.58333333 Z" id="路径" stroke="#F28132" stroke-linecap="round" stroke-linejoin="round"></path>
                <path d="M7.47259792,1.60416667 C7.93844792,1.88487292 8.25002292,2.39563958 8.25002292,2.97916667 C8.25002292,3.56269375 7.93844792,4.07346042 7.47259792,4.35416667" id="路径" stroke="#F28132" stroke-linecap="round" stroke-linejoin="round"></path>
                <path d="M0.916666667,9.35 L0.916666667,9.625 L7.79166667,9.625 L7.79166667,9.35 C7.79166667,8.32324167 7.79166667,7.8098625 7.59185625,7.41768958 C7.41608542,7.072725 7.13560833,6.79224792 6.79064375,6.61647708 C6.39847083,6.41666667 5.88509167,6.41666667 4.85833333,6.41666667 L3.85,6.41666667 C2.82324167,6.41666667 2.3098625,6.41666667 1.917685,6.61647708 C1.57272042,6.79224792 1.29225479,7.072725 1.11648854,7.41768958 C0.916666667,7.8098625 0.916666667,8.32324167 0.916666667,9.35 Z" id="路径" stroke="#F28132" stroke-linecap="round" stroke-linejoin="round"></path>
                <path d="M10.0833104,9.625 L10.0833104,9.35 C10.0833104,8.32324167 10.0833104,7.8098625 9.8835,7.41768958 C9.70772917,7.072725 9.42725208,6.79224792 9.0822875,6.61647708" id="路径" stroke="#F28132" stroke-linecap="round" stroke-linejoin="round"></path>
            </g>
        </g>
    </g>
</svg>