<?xml version="1.0" encoding="UTF-8"?>
<svg width="16px" height="16px" viewBox="0 0 16 16" version="1.1" xmlns="http://www.w3.org/2000/svg" xmlns:xlink="http://www.w3.org/1999/xlink">
    <title>icon/16px/添加</title>
    <g id="控件" stroke="none" stroke-width="1" fill="none" fill-rule="evenodd">
        <g id="icon/16px/添加" fill="#737373" fill-rule="nonzero">
            <g id="编组" transform="translate(1.000000, 1.000000)">
                <path d="M10.2941176,6.25 C10.7083312,6.25 11.0441176,6.58578644 11.0441176,7 C11.0441176,7.37969577 10.7619638,7.69349096 10.3958882,7.74315338 L10.2941176,7.75 L3.70588235,7.75 C3.29166879,7.75 2.95588235,7.41421356 2.95588235,7 C2.95588235,6.62030423 3.23803623,6.30650904 3.6041118,6.25684662 L3.70588235,6.25 L10.2941176,6.25 Z" id="直线备份"></path>
                <path d="M7,2.95588235 C7.37969577,2.95588235 7.69349096,3.23803623 7.74315338,3.6041118 L7.75,3.70588235 L7.75,10.2941176 C7.75,10.7083312 7.41421356,11.0441176 7,11.0441176 C6.62030423,11.0441176 6.30650904,10.7619638 6.25684662,10.3958882 L6.25,10.2941176 L6.25,3.70588235 C6.25,3.29166879 6.58578644,2.95588235 7,2.95588235 Z" id="直线"></path>
                <path d="M7,-0.75 C2.71979319,-0.75 -0.75,2.71979319 -0.75,7 C-0.75,11.2802068 2.71979319,14.75 7,14.75 C11.2802068,14.75 14.75,11.2802068 14.75,7 C14.75,2.71979319 11.2802068,-0.75 7,-0.75 Z M7,0.75 C10.4517797,0.75 13.25,3.54822031 13.25,7 C13.25,10.4517797 10.4517797,13.25 7,13.25 C3.54822031,13.25 0.75,10.4517797 0.75,7 C0.75,3.54822031 3.54822031,0.75 7,0.75 Z" id="椭圆形"></path>
            </g>
        </g>
    </g>
</svg>