<?xml version="1.0" encoding="UTF-8"?>
<svg width="20px" height="20px" viewBox="0 0 20 20" version="1.1" xmlns="http://www.w3.org/2000/svg" xmlns:xlink="http://www.w3.org/1999/xlink">
    <title>icon/20px/time浅色备份 2</title>
    <g id="控件" stroke="none" stroke-width="1" fill="none" fill-rule="evenodd">
        <g id="icon/20px/time浅色备份-2">
            <rect id="R" fill="#EBF0FD" x="0" y="0" width="20" height="20" rx="10"></rect>
            <g id="icon_repair1" transform="translate(5.000000, 5.000000)" fill="#4168F6" fill-rule="nonzero">
                <path d="M6.25,2.18918919 C6.52614237,2.18918919 6.75,2.41304681 6.75,2.68918919 C6.75,2.93464908 6.57312484,3.13879756 6.33987563,3.18113352 L6.25,3.18918919 L3.25,3.18918919 C2.97385763,3.18918919 2.75,2.96533156 2.75,2.68918919 C2.75,2.4437293 2.92687516,2.23958082 3.16012437,2.19724486 L3.25,2.18918919 L6.25,2.18918919 Z" id="路径"></path>
                <path d="M4.75,2.43243243 C4.99545989,2.43243243 5.19960837,2.60930759 5.24194433,2.8425568 L5.25,2.93243243 L5.25,6.09459459 C5.25,6.37073697 5.02614237,6.59459459 4.75,6.59459459 C4.50454011,6.59459459 4.30039163,6.41771943 4.25805567,6.18447023 L4.25,6.09459459 L4.25,2.93243243 C4.25,2.65629006 4.47385763,2.43243243 4.75,2.43243243 Z" id="路径"></path>
                <path d="M9,0 C9.51003778,0 9.93510744,0.378138562 9.99322944,0.870865993 L10,0.986486486 L10,3.35000811 C10,3.62615048 9.77614237,3.85000811 9.5,3.85000811 C9.25454011,3.85000811 9.05039163,3.67313295 9.00805567,3.43988374 L9,3.35000811 L9,1 L1,1 L1,9 L4.035725,9 C4.28118489,9 4.48533337,9.17687516 4.52766933,9.41012437 L4.535725,9.5 C4.535725,9.74545989 4.35884984,9.94960837 4.12560063,9.99194433 L4.035725,10 L1,10 C0.489966457,10 0.0648931673,9.62186544 0.00677062361,9.12913486 L0,9.01351351 L0,0.986486486 C0,0.477690696 0.388643587,0.0632084337 0.883936745,0.00659257882 L1,0 L9,0 Z" id="路径"></path>
                <path d="M7.97389623,4.70147736 L5.34889623,8.22850439 C5.28468145,8.31478526 5.25,8.41947273 5.25,8.52702703 L5.25,9.5 C5.25,9.77614237 5.47385763,10 5.75,10 L6.75,10 C6.90696237,10 7.05481475,9.92629233 7.14928903,9.80094562 L9.89928903,6.15229697 C10.0652683,5.93207883 10.0216164,5.61905522 9.80172134,5.45264816 L8.67672134,4.60129681 C8.45527719,4.43371746 8.13969898,4.47869992 7.97389623,4.70147736 Z M8.475,5.702 L8.8,5.948 L6.501,8.999 L6.25,8.999 L6.25,8.692 L8.475,5.702 Z" id="路径"></path>
            </g>
        </g>
    </g>
</svg>