<?xml version="1.0" encoding="UTF-8"?>
<svg width="18px" height="18px" viewBox="0 0 18 18" version="1.1" xmlns="http://www.w3.org/2000/svg" xmlns:xlink="http://www.w3.org/1999/xlink">
    <title>icon/18px/企业微信</title>
    <g id="控件" stroke="none" stroke-width="1" fill="none" fill-rule="evenodd">
        <g id="编组" transform="translate(1.000000, 1.000000)">
            <rect id="R" stroke="#FFFFFF" fill="#5BBAFF" x="-0.5" y="-0.5" width="17" height="17" rx="8.5"></rect>
            <g id="工具---企业微信" transform="translate(3.500000, 4.200000)" fill="#FFFFFF" fill-rule="nonzero">
                <path d="M6.17461149,6.02064524 C6.4194643,6.26656263 6.71594912,6.41560346 7.04330667,6.508754 L7.16786224,6.54122361 C7.40153698,6.5838067 7.5234311,6.79672219 7.53407688,7.01389598 C7.53407688,7.26939456 7.34777583,7.48656836 7.09334181,7.52382858 C6.848489,7.5557659 6.59405499,7.40140217 6.54082613,7.15761394 C6.4663057,6.78022125 6.30715138,6.45126681 6.03089353,6.17500897 C5.99895621,6.14307165 6.02024776,6.07387412 6.00960198,6.02064524 L6.12244719,6.01159633 C6.14640019,6.01053175 6.16609487,6.01266091 6.17461149,6.02064524 L6.17461149,6.02064524 Z M6.62599232,1.20875523 C7.14657069,1.76180321 7.43294202,2.41492146 7.4435878,3.17449746 C7.31583851,3.1159457 7.17318512,3.08400838 7.02414429,3.08400839 L7.00285274,3.08400839 C6.50634924,3.10383884 6.09833673,3.48248167 6.04153932,3.97612428 C6.03089354,4.06661336 6.03089354,4.15710244 6.04153932,4.24173634 C5.85577055,4.4280374 5.62741869,4.54460862 5.34583796,4.59251461 L5.34051507,4.59251461 C4.9744034,4.67037207 4.68565168,4.95175036 4.59835207,5.31572607 C4.51105246,5.67970178 4.64075415,6.06144616 4.93171733,6.29690309 C4.61273022,6.39431126 4.28241995,6.44978048 3.94911236,6.46191258 C3.52243455,6.48231026 3.09504483,6.44107719 2.68013606,6.33948618 C2.61626141,6.32884041 2.53641811,6.33948618 2.47254346,6.36077773 L1.51176232,6.83345011 C1.38933592,6.89732476 1.27755529,6.90797054 1.17162984,6.82280434 C1.07049498,6.74828392 1.0598492,6.63650329 1.07049498,6.5039634 C1.11307807,6.23888361 1.1450154,5.97327155 1.17162984,5.70765947 C1.17162984,5.65443061 1.13969252,5.57458729 1.09710941,5.5320042 C0.677665901,5.11256069 0.316774156,4.65053409 0.135795988,4.06661336 C-0.203804212,2.9088854 0.103858668,1.91563465 0.943277977,1.08686112 C2.47786635,-0.41578993 5.1600692,-0.346592403 6.62599232,1.20928752 L6.62599232,1.20875523 Z M8.5379734,5.03857256 C8.80358546,5.07050988 9,5.28289308 9,5.54850515 C9,5.80293915 8.84563628,6.01053175 8.59120226,6.05790544 C8.28458507,6.11124874 7.99827043,6.24704579 7.76296103,6.45073452 L7.67779483,6.53057783 C7.62456596,6.5838067 7.54472265,6.63171269 7.49149378,6.55186938 C7.47020223,6.50928629 7.480848,6.40815143 7.51278532,6.37674639 C7.76286138,6.12343335 7.92803549,5.79866535 7.98545771,5.44737029 C8.03449019,5.1876488 8.27526766,5.0095013 8.5379734,5.03857256 L8.5379734,5.03857256 Z M6.5514719,4.56057728 C6.54082613,4.61380615 6.56211767,4.69364946 6.53018035,4.7250545 C6.26456829,4.99066657 6.12138262,5.30950751 6.0468622,5.67572215 C5.99793922,5.93184599 5.7512334,6.1002816 5.49487879,6.05258256 C5.24162444,6.01084171 5.05412219,5.79447574 5.04882085,5.53785938 C5.04882085,5.31429812 5.21329807,5.1072378 5.43632704,5.06518699 C5.79562515,5.00642933 6.12781055,4.83754672 6.38699469,4.58186884 C6.41893201,4.54993152 6.49877532,4.56057729 6.55200419,4.56057728 L6.5514719,4.56057728 Z M7.02414429,3.56200365 C7.25835132,3.56200365 7.47552512,3.71636738 7.5234311,3.96015562 C7.58730575,4.32690254 7.74699236,4.64521119 8.00674926,4.91082327 C8.03868658,4.94276059 8.01739503,5.03324967 8.0280408,5.08647854 L7.90987271,5.092866 C7.88591971,5.092866 7.86569274,5.08807541 7.85291781,5.07583276 C7.58677346,4.79904264 7.25781902,4.65585696 6.89160439,4.57654595 C6.64611443,4.51846725 6.48356462,4.28507413 6.51421169,4.03467603 C6.5514719,3.76906396 6.7590645,3.57264943 7.02414429,3.56200365 L7.02414429,3.56200365 Z" id="形状"></path>
            </g>
        </g>
    </g>
</svg>