<?xml version="1.0" encoding="UTF-8"?>
<svg width="20px" height="20px" viewBox="0 0 20 20" version="1.1" xmlns="http://www.w3.org/2000/svg" xmlns:xlink="http://www.w3.org/1999/xlink">
    <title>icon/20px/time</title>
    <g id="控件" stroke="none" stroke-width="1" fill="none" fill-rule="evenodd">
        <g id="icon/20px/time">
            <g id="icon/time" transform="translate(4.000000, 4.000000)">
                <rect stroke="#4168F6" x="0.5" y="0.5" width="11" height="11" rx="5.5"></rect>
                <rect id="Rectangle" fill="#4168F6" x="5" y="4" width="1" height="3" rx="0.5"></rect>
                <path d="M6.5,5 C6.77614237,5 7,5.22385763 7,5.5 L7,7.5 C7,7.77614237 6.77614237,8 6.5,8 C6.22385763,8 6,7.77614237 6,7.5 L6,5.5 C6,5.22385763 6.22385763,5 6.5,5 Z" id="Rectangle-Copy" fill="#4168F6" transform="translate(6.500000, 6.500000) rotate(-270.000000) translate(-6.500000, -6.500000) "></path>
            </g>
            <g id="icon/time" transform="translate(2.000000, 2.000000)">
                <rect stroke="#4168F6" fill="#4168F6" x="0.5" y="0.5" width="15" height="15" rx="7.5"></rect>
                <rect id="Rectangle" fill="#FFFFFF" x="6.66666667" y="5.33333333" width="1.33333333" height="4" rx="0.666666667"></rect>
                <path d="M8.66666667,6.66666667 C9.0348565,6.66666667 9.33333333,6.9651435 9.33333333,7.33333333 L9.33333333,10 C9.33333333,10.3681898 9.0348565,10.6666667 8.66666667,10.6666667 C8.29847683,10.6666667 8,10.3681898 8,10 L8,7.33333333 C8,6.9651435 8.29847683,6.66666667 8.66666667,6.66666667 Z" id="Rectangle-Copy" fill="#FFFFFF" transform="translate(8.666667, 8.666667) rotate(-270.000000) translate(-8.666667, -8.666667) "></path>
            </g>
        </g>
    </g>
</svg>