<?xml version="1.0" encoding="UTF-8"?>
<svg width="16px" height="16px" viewBox="0 0 16 16" version="1.1" xmlns="http://www.w3.org/2000/svg" xmlns:xlink="http://www.w3.org/1999/xlink">
    <title>icon/16px/上传备份 2</title>
    <defs>
        <rect id="path-1" x="0" y="0" width="16" height="16"></rect>
    </defs>
    <g id="控件" stroke="none" stroke-width="1" fill="none" fill-rule="evenodd">
        <g id="上传_upload">
            <rect id="矩形" fill-opacity="0.01" fill="#FFFFFF" fill-rule="nonzero" x="0" y="0" width="16" height="16"></rect>
            <g id="Clipped">
                <mask id="mask-2" fill="white">
                    <use xlink:href="#path-1"></use>
                </mask>
                <g id="矩形"></g>
                <g id="编组" mask="url(#mask-2)" fill="#737373" fill-rule="nonzero">
                    <g transform="translate(1.250000, 1.250000)" id="路径">
                        <path d="M12.75,6 C13.1296958,6 13.443491,6.28215388 13.4931534,6.64822944 L13.5,6.75 L13.5,12.75 C13.5,13.1296958 13.2178461,13.443491 12.8517706,13.4931534 L12.75,13.5 L0.75,13.5 C0.370304234,13.5 0.0565090391,13.2178461 0.006846616,12.8517706 L0,12.75 L0,6.75276667 C0,6.3385531 0.335786438,6.00276667 0.75,6.00276667 C1.12969577,6.00276667 1.44349096,6.28492055 1.49315338,6.65099611 L1.5,6.75276667 L1.5,12 L12,12 L12,6.75 C12,6.37030423 12.2821539,6.05650904 12.6482294,6.00684662 L12.75,6 Z"></path>
                        <path d="M6.21966991,0.219669914 C6.48593648,-0.0465966484 6.90260016,-0.0708026996 7.19621165,0.147051761 L7.28033009,0.219669914 L10.2803301,3.21966991 C10.5732233,3.51256313 10.5732233,3.98743687 10.2803301,4.28033009 C10.0140635,4.54659665 9.59739984,4.5708027 9.30378835,4.35294824 L9.21966991,4.28033009 L6.75,1.811 L4.28033009,4.28033009 C4.01406352,4.54659665 3.59739984,4.5708027 3.30378835,4.35294824 L3.21966991,4.28033009 C2.95340335,4.01406352 2.9291973,3.59739984 3.14705176,3.30378835 L3.21966991,3.21966991 L6.21966991,0.219669914 Z"></path>
                        <path d="M6.74723333,0 C7.1269291,0 7.44072429,0.282153882 7.49038672,0.648229443 L7.49723333,0.75 L7.49723333,9.41666667 C7.49723333,9.83088023 7.1614469,10.1666667 6.74723333,10.1666667 C6.36753757,10.1666667 6.05374237,9.88451279 6.00407995,9.51843722 L5.99723333,9.41666667 L5.99723333,0.75 C5.99723333,0.335786438 6.33301977,0 6.74723333,0 Z"></path>
                    </g>
                </g>
            </g>
        </g>
    </g>
</svg>