<?xml version="1.0" encoding="UTF-8"?>
<svg width="18px" height="18px" viewBox="0 0 18 18" version="1.1" xmlns="http://www.w3.org/2000/svg" xmlns:xlink="http://www.w3.org/1999/xlink">
    <title>ico/18px/微信</title>
    <g id="ico/18px/微信" stroke="none" stroke-width="1" fill="none" fill-rule="evenodd">
        <rect id="矩形" x="0" y="0" width="18" height="18"></rect>
        <g id="编组" transform="translate(1.000000, 1.000000)">
            <rect id="R" stroke="#FFFFFF" fill="#74D178" x="0" y="0" width="16" height="16" rx="8"></rect>
            <g id="微信-(2)" transform="translate(3.000000, 4.000000)" fill="#FFFFFF" fill-rule="nonzero">
                <path d="M6.7694592,2.43879414 C6.8845174,2.43879414 6.9979885,2.4472116 7.11035453,2.45942631 C6.80421061,1.04852617 5.27956897,0 3.53943568,0 C1.59382704,0 0,1.31235944 0,2.97866362 C0,3.94034655 0.530370452,4.73020045 1.41631976,5.34281747 L1.06237501,6.39665746 L2.29955338,5.78253565 C2.74252803,5.86912027 3.09754259,5.95840882 3.53943568,5.95840882 C3.65044973,5.95840882 3.76037046,5.95300095 3.86976216,5.94432486 C3.80054149,5.71035241 3.76037047,5.46498819 3.76037047,5.21064221 C3.76038222,3.68059269 5.08821285,2.43879414 6.7694592,2.43879414 Z M4.86672553,1.4890673 C5.13326272,1.4890673 5.30968843,1.66277731 5.30968843,1.92634018 C5.30968843,2.18880972 5.13326272,2.36469464 4.86672553,2.36469464 C4.60125816,2.36469464 4.33526176,2.18880972 4.33526176,1.92634018 C4.33526176,1.66277731 4.60126992,1.4890673 4.86672553,1.4890673 Z M2.38966487,2.36468287 C2.1241975,2.36468287 1.85656697,2.18879795 1.85656697,1.92632842 C1.85656697,1.66276555 2.1241975,1.48905553 2.38966487,1.48905553 C2.65483834,1.48905553 2.8315462,1.66276555 2.8315462,1.92632842 C2.8315462,2.18880972 2.65483834,2.36468287 2.38966487,2.36468287 Z M10,5.16856666 C10,3.76825888 8.58395063,2.62689378 6.99365047,2.62689378 C5.30968843,2.62689378 3.98349192,3.76825889 3.98349192,5.16856666 C3.98349192,6.57090826 5.30968844,7.70982808 6.99365047,7.70982808 C7.34596109,7.70982808 7.70153995,7.62240877 8.05546119,7.53448394 L9.02639627,8.0605046 L8.76010596,7.18541804 C9.47073464,6.65776327 10,5.95840881 10,5.16856666 Z M6.01757791,4.73020045 C5.84143435,4.73020045 5.66364493,4.55676083 5.66364493,4.37978257 C5.66364493,4.20526137 5.84143436,4.02964684 6.01757791,4.02964684 C6.28520844,4.02964684 6.46055257,4.20526137 6.46055257,4.37978257 C6.46055257,4.55676083 6.28520844,4.73020045 6.01757791,4.73020045 Z M7.96426812,4.73020045 C7.78948829,4.73020045 7.61278043,4.55676083 7.61278043,4.37978257 C7.61278043,4.20526137 7.78948828,4.02964684 7.96426812,4.02964684 C8.22973549,4.02964684 8.40724278,4.20526137 8.40724278,4.37978257 C8.40724278,4.55676083 8.22973549,4.73020045 7.96426812,4.73020045 Z" id="形状"></path>
            </g>
        </g>
    </g>
</svg>