<?xml version="1.0" encoding="UTF-8"?>
<svg width="20px" height="20px" viewBox="0 0 20 20" version="1.1" xmlns="http://www.w3.org/2000/svg" xmlns:xlink="http://www.w3.org/1999/xlink">
    <title>icon/20px/企业微信</title>
    <g id="控件" stroke="none" stroke-width="1" fill="none" fill-rule="evenodd">
        <g id="icon/20px/企业微信">
            <rect id="R" fill="#EBF0FD" x="0" y="0" width="20" height="20" rx="10"></rect>
            <g id="qiyeweixin" transform="translate(3.000000, 4.000000)" fill-rule="nonzero">
                <path d="M8.00866041,9.69594866 C7.11662006,10.0537287 6.16511036,10.1133587 5.21360065,10.0537287 C4.79731516,9.99409867 4.38102966,9.93446866 3.96474417,9.81520866 C3.90527481,9.81520866 3.84580545,9.81520866 3.7863361,9.87483866 C3.25111189,10.1133587 2.71588768,10.4115087 2.24013283,10.6500287 C2.06172476,10.7692887 1.88331669,10.7692887 1.70490862,10.6500287 C1.52650055,10.5307687 1.52650055,10.3518787 1.52650055,10.1133587 C1.64543926,9.69594866 1.64543926,9.27853865 1.70490862,8.86112864 C1.70490862,8.80149864 1.64543926,8.74186864 1.64543926,8.68223863 C1.0507457,8.08593862 0.574990845,7.48963861 0.218174706,6.71444859 C-0.376518859,5.28332855 -0.257580146,3.85220852 0.574990845,2.54034849 C1.40756184,1.10922845 2.71588768,0.334038434 4.26209095,-0.0237415746 C5.80829422,-0.381521583 7.29502813,-0.202631579 8.72229269,0.512928438 C10.0306185,1.16885845 10.9821282,2.18256848 11.3984137,3.61368851 C11.5768218,4.15035853 11.6362912,4.68702854 11.5768218,5.22369855 C11.279475,4.92554854 10.9226589,4.86591854 10.5658427,5.04480855 C10.5658427,4.68702854 10.5658427,4.32924853 10.446904,3.97146852 C10.2090266,3.1366485 9.73327175,2.48071849 9.13857818,1.94404847 C8.12759912,1.10922845 6.87874263,0.751448444 5.57041679,0.751448444 C4.20262159,0.870708447 3.01323446,1.34774846 2.06172476,2.30182848 C1.28862312,3.0770185 0.872337628,4.03109852 0.931806984,5.16406855 C0.991276341,6.11814857 1.40756184,6.89333859 2.0022554,7.54926861 L2.47801025,8.02630862 C2.71588768,8.20519862 2.77535704,8.38408863 2.65641832,8.62260863 C2.59694897,8.86112864 2.53747961,9.15927865 2.47801025,9.39779865 C2.47801025,9.45742865 2.4185409,9.51705865 2.47801025,9.51705865 C2.53747961,9.57668866 2.59694897,9.51705865 2.59694897,9.51705865 C2.89429575,9.33816865 3.25111189,9.15927865 3.54845867,8.92075864 C3.72686674,8.80149864 3.90527481,8.80149864 4.14315224,8.86112864 C5.1541313,9.15927865 6.22457971,9.15927865 7.23555877,8.86112864 C7.29502813,8.86112864 7.35449749,8.80149864 7.35449749,8.92075864 C7.4734362,9.27853865 7.65184427,9.51705865 8.00866041,9.69594866 Z" id="路径" fill="#0082EF"></path>
                <path d="M14.0307018,8.71983455 C14.0307018,9.12843604 13.7394947,9.42029425 13.3900462,9.47866589 C12.8076321,9.59540917 12.3417008,9.82889574 11.9340109,10.2374972 C11.8175281,10.3542405 11.7592867,10.3542405 11.6428039,10.2958689 C11.5845625,10.2374972 11.5845625,10.1207539 11.6428039,10.0040107 C12.0504937,9.59540917 12.2834594,9.0700644 12.3999422,8.54471963 C12.4581836,8.13611814 12.8658735,7.90263158 13.2735634,7.90263158 C13.7394947,7.96100322 14.0307018,8.31123307 14.0307018,8.71983455 L14.0307018,8.71983455 Z" id="路径" fill="#0081EE"></path>
                <path d="M10.8717527,11.9552632 C10.4519113,11.9552632 10.0920473,11.6629926 10.03207,11.3122678 C9.97209264,10.7277266 9.67220596,10.2600937 9.25236462,9.90936895 C9.19238729,9.85091483 9.13240995,9.79246071 9.19238729,9.67555247 C9.25236462,9.50019011 9.37231929,9.50019011 9.49227396,9.55864423 C9.61222863,9.61709835 9.67220596,9.73400659 9.7321833,9.79246071 C10.0920473,10.0847313 10.5118886,10.2600937 10.93173,10.3185478 C11.3515713,10.3770019 11.651458,10.7861808 11.5914807,11.1953596 C11.651458,11.6045384 11.291594,11.9552632 10.8717527,11.9552632 L10.8717527,11.9552632 Z" id="路径" fill="#FA6202"></path>
                <path d="M7.95175439,8.71688015 C7.95175439,8.31781263 8.18524095,8.03276441 8.59384244,7.91874512 C9.17755885,7.80472583 9.64453198,7.57668725 10.0531335,7.17761973 C10.1698767,7.06360044 10.28662,7.06360044 10.3449917,7.17761973 C10.4033633,7.23462938 10.4033633,7.34864867 10.28662,7.46266796 C9.93639018,7.80472583 9.70290362,8.20379334 9.58616034,8.71688015 C9.58616034,8.77388979 9.58616034,8.88790908 9.5277887,8.94491873 C9.41104541,9.34398625 9.06081557,9.57202483 8.65221408,9.51501518 C8.24361259,9.45800554 7.95175439,9.11594766 7.95175439,8.71688015 L7.95175439,8.71688015 Z" id="路径" fill="#FECD00"></path>
                <path d="M12.1230848,6.65338762 C12.301133,7.00201384 12.4791813,7.29253569 12.7165789,7.52495317 C12.8352778,7.64116191 12.8352778,7.75737065 12.7759284,7.81547502 C12.7165789,7.93168376 12.5978801,7.93168376 12.4791813,7.81547502 C12.1824342,7.4668488 11.7669883,7.23443132 11.3515424,7.11822258 C11.2328436,7.06011821 11.1141447,7.06011821 10.9954459,7.06011821 C10.7580482,7.00201384 10.5206506,6.8858051 10.4613012,6.59528325 C10.3426023,6.3047614 10.3426023,6.01423955 10.58,5.78182207 C10.8173977,5.49130022 11.1141447,5.43319585 11.4108918,5.49130022 C11.7076389,5.60750896 11.9450365,5.78182207 12.004386,6.13044829 C12.004386,6.3047614 12.0637354,6.47907451 12.1230848,6.65338762 Z" id="路径" fill="#2CBD00"></path>
            </g>
        </g>
    </g>
</svg>