<?xml version="1.0" encoding="UTF-8"?>
<svg width="16px" height="16px" viewBox="0 0 16 16" version="1.1" xmlns="http://www.w3.org/2000/svg" xmlns:xlink="http://www.w3.org/1999/xlink">
    <title>icon/16px/pic</title>
    <g id="控件" stroke="none" stroke-width="1" fill="none" fill-rule="evenodd">
        <g id="icon/16px/pic">
            <rect id="R" fill="#4168F6" x="0" y="0" width="16" height="16" rx="8"></rect>
            <g id="编组" transform="translate(3.500000, 3.900000)" fill="#FFFFFF">
                <circle id="椭圆形" cx="2.20744588" cy="0.7517545" r="1"></circle>
                <path d="M5.05162527,1.10519955 L3.752,3.377 L3.35325555,2.87049089 C2.95195928,2.3615841 2.18004271,2.3615841 1.77903458,2.87012513 L-0.284324704,5.48999662 C-0.801838685,6.14641035 -0.33386005,7.11161629 0.502265169,7.11161629 L8.49692757,7.11161629 C9.26635873,7.11161629 9.74864911,6.28118253 9.36764766,5.6133094 L6.79158503,1.10519955 C6.40667109,0.43160015 5.43653921,0.43160015 5.05162527,1.10519955 Z M3.88455152,5.16245822 L5.91984786,1.60133849 L8.4989908,6.11071999 L0.501142548,6.11056738 L2.56773058,3.48932068 L3.88455152,5.16245822 Z" id="路径" fill-rule="nonzero"></path>
            </g>
        </g>
    </g>
</svg>