<?xml version="1.0" encoding="UTF-8"?>
<svg width="20px" height="20px" viewBox="0 0 20 20" version="1.1" xmlns="http://www.w3.org/2000/svg" xmlns:xlink="http://www.w3.org/1999/xlink">
    <title>icon/20px/商机</title>
    <g id="控件" stroke="none" stroke-width="1" fill="none" fill-rule="evenodd">
        <g id="icon/20px/商机">
            <rect id="R" fill="#E1FAF6" x="0" y="0" width="20" height="20" rx="10"></rect>
            <path d="M6.62000003,5 L13.38,5 C14.2747013,5 15,5.72529872 15,6.62000003 L15,11.9153519 C15,12.444767 14.7413146,12.94078 14.3071841,13.2437833 L10.9271841,15.6028681 C10.3701872,15.9916264 9.62981283,15.9916264 9.07281592,15.6028681 L5.69281595,13.2437833 C5.25868537,12.94078 5,12.444767 5,11.9153519 L5,6.62000003 C5,5.72529872 5.72529872,5 6.62000003,5 Z" id="R" stroke="#36B39E"></path>
            <path d="M9.90395656,11.671176 L9.01900418,11.99594 C8.874515,12.0489653 8.71439786,11.9748192 8.66137254,11.83033 C8.64934071,11.7975443 8.64357852,11.7627893 8.6443861,11.7278749 L8.66763958,10.7225445 C8.66905996,10.6611363 8.65015229,10.6009791 8.61385603,10.5514254 L8.02184453,9.74317708 C7.93089709,9.61901038 7.95782662,9.44462591 8.08199332,9.35367847 C8.10680772,9.33550285 8.13445994,9.32156067 8.16382844,9.31241742 L9.08311711,9.02621657 C9.14441749,9.00713201 9.19724831,8.96746707 9.2326794,8.91392648 L9.76756532,8.10565007 C9.85250376,7.97729795 10.0254099,7.94210421 10.1537621,8.02704266 C10.1849778,8.04770003 10.2117121,8.07443432 10.2323695,8.10565007 L10.7672554,8.91392648 C10.8026865,8.96746707 10.8555173,9.00713201 10.9168177,9.02621657 L11.8361063,9.31241742 C11.9830609,9.35816858 12.0651025,9.51438741 12.0193513,9.66134196 C12.0102081,9.69071046 11.9962659,9.71836268 11.9780903,9.74317708 L11.3860788,10.5514254 C11.3497825,10.6009791 11.3308748,10.6611363 11.3322952,10.7225445 L11.3555487,11.7278749 C11.3591077,11.8817454 11.2372562,12.0093673 11.0833857,12.0129264 C11.0484713,12.013734 11.0137163,12.0079718 10.9809306,11.99594 L10.0959782,11.671176 C10.0339921,11.648428 9.96594265,11.648428 9.90395656,11.671176 Z" id="R" fill="#36B39E"></path>
        </g>
    </g>
</svg>