<?xml version="1.0" encoding="UTF-8"?>
<svg width="20px" height="20px" viewBox="0 0 20 20" version="1.1" xmlns="http://www.w3.org/2000/svg" xmlns:xlink="http://www.w3.org/1999/xlink">
    <title>icon/20px/编辑_黑</title>
    <g id="控件" stroke="none" stroke-width="1" fill="none" fill-rule="evenodd">
        <g id="icon/20px/编辑_黑" fill="#262626" fill-rule="nonzero">
            <g id="编组" transform="translate(3.000000, 3.823529)">
                <path d="M8.23529412,-1 C8.78757887,-1 9.23529412,-0.55228475 9.23529412,0 C9.23529412,0.512835839 8.84925393,0.935507161 8.35191524,0.993272269 L8.23529412,1 L2,1 C1.48716416,1 1.06449284,1.38604019 1.00672773,1.88337887 L1,2 L1,11.1764706 C1,11.6893064 1.38604019,12.1119777 1.88337887,12.1697429 L2,12.1764706 L11.1764706,12.1764706 C11.6893064,12.1764706 12.1119777,11.7904304 12.1697429,11.2930917 L12.1764706,11.1764706 L12.1764706,5.74451633 C12.1764706,5.19223158 12.6241858,4.74451633 13.1764706,4.74451633 C13.6893064,4.74451633 14.1119777,5.13055652 14.1697429,5.62789521 L14.1764706,5.74451633 L14.1764706,11.1764706 C14.1764706,12.7741515 12.9275506,14.0801315 11.3527434,14.1713779 L11.1764706,14.1764706 L2,14.1764706 C0.402319117,14.1764706 -0.903660879,12.9275506 -0.994907307,11.3527434 L-1,11.1764706 L-1,2 C-1,0.402319117 0.248919964,-0.903660879 1.82372721,-0.994907307 L2,-1 L8.23529412,-1 Z" id="L"></path>
                <path d="M12.2072801,-0.409353596 C12.5992961,-0.798380396 13.2324565,-0.79595712 13.6214833,-0.403941057 C13.9805849,-0.0420800759 14.0061433,0.525252953 13.6996193,0.916373883 L13.6160707,1.01026215 L8.93968945,5.65098434 C8.54767339,6.04001114 7.91451305,6.03758787 7.52548625,5.6455718 C7.16638458,5.28371082 7.14082618,4.71637779 7.44735023,4.32525686 L7.53089878,4.2313686 L12.2072801,-0.409353596 Z" id="P"></path>
            </g>
        </g>
    </g>
</svg>