<?xml version="1.0" encoding="UTF-8"?>
<svg width="16px" height="16px" viewBox="0 0 16 16" version="1.1" xmlns="http://www.w3.org/2000/svg" xmlns:xlink="http://www.w3.org/1999/xlink">
    <title>icon/16px/垃圾箱</title>
    <g id="控件" stroke="none" stroke-width="1" fill="none" fill-rule="evenodd">
        <g id="icon/16px/垃圾箱" fill-rule="nonzero">
            <g id="删除_delete" transform="translate(0.500000, 1.000000)">
                <rect id="矩形" fill-opacity="0.01" fill="#FFFFFF" x="0" y="0" width="15" height="15"></rect>
                <path d="M12.1875,2.375 L2.8125,2.375 C2.37380526,2.375 2.02876646,2.74988028 2.06507288,3.18707007 L2.94742582,13.8120701 C2.97971458,14.2008806 3.30470398,14.5 3.69485294,14.5 L11.3051471,14.5 C11.695296,14.5 12.0202854,14.2008806 12.0525742,13.8120701 L12.9349271,3.18707007 C12.9712335,2.74988028 12.6261947,2.375 12.1875,2.375 Z M11.372,3.875 L10.614,12.999 L4.385,12.999 L3.627,3.875 L11.372,3.875 Z" id="路径" fill="#737373"></path>
                <path d="M13.75,2.375 C14.1642136,2.375 14.5,2.71078644 14.5,3.125 C14.5,3.50469577 14.2178461,3.81849096 13.8517706,3.86815338 L13.75,3.875 L1.25,3.875 C0.835786438,3.875 0.5,3.53921356 0.5,3.125 C0.5,2.74530423 0.782153882,2.43150904 1.14822944,2.38184662 L1.25,2.375 L13.75,2.375 Z" id="路径" fill="#737373"></path>
                <path d="M9,8.25 C9.41421356,8.25 9.75,8.58578644 9.75,9 C9.75,9.37969577 9.46784612,9.69349096 9.10177056,9.74315338 L9,9.75 L6,9.75 C5.58578644,9.75 5.25,9.41421356 5.25,9 C5.25,8.62030423 5.53215388,8.30650904 5.89822944,8.25684662 L6,8.25 L9,8.25 Z" id="路径备份" fill="#737373"></path>
                <path d="M8.99284375,-0.272058824 L6.0278125,-0.272058824 C5.71835848,-0.272058824 5.44067545,-0.0819980015 5.3286664,0.206473429 L4.3008539,2.85353225 C4.10997439,3.34512902 4.47264588,3.875 5,3.875 L10,3.875 C10.5251836,3.875 10.8877366,3.34914648 10.7009756,2.85829192 L9.69381936,0.211233101 C9.5831115,-0.0797348679 9.30416125,-0.272058824 8.99284375,-0.272058824 Z M8.475,1.227 L8.912,2.375 L6.095,2.375 L6.541,1.227 L8.475,1.227 Z" id="路径" fill="#737373"></path>
            </g>
        </g>
    </g>
</svg>