<?xml version="1.0" encoding="UTF-8"?>
<svg width="24px" height="24px" viewBox="0 0 24 24" version="1.1" xmlns="http://www.w3.org/2000/svg" xmlns:xlink="http://www.w3.org/1999/xlink">
    <title>icon/24px/客户群发</title>
    <g id="控件" stroke="none" stroke-width="1" fill="none" fill-rule="evenodd">
        <g id="icon/24px/客户群发">
            <rect id="矩形" fill="#D8D8D8" opacity="0" x="0" y="0" width="24" height="24"></rect>
            <path d="M11.1838093,2 C13.8462004,2 16.0119797,4.19744936 16.0108301,6.89687745 C16.0108301,8.74627287 15.1521055,10.3475506 13.5875484,11.2056242 C14.562379,11.4882026 15.4762827,11.9637614 16.2890247,12.586353 C14.5830712,13.2066471 13.3576355,14.9181994 13.3576355,16.9330065 C13.3576355,19.4038448 15.2015368,21.4198007 17.5133108,21.523183 L17.5730881,21.523183 L13.018514,21.523183 L12.6127178,21.5243317 L11.7930784,21.5243317 L11.3826839,21.5254804 L10.1595474,21.5254804 L9.75834946,21.5277778 L5.38310746,21.5277778 C4.89569217,21.5277778 4.52093417,21.5266291 4.29906825,21.5243317 C2.55632865,21.5105474 2.5,20.6283513 2.5,19.8012925 C2.5,15.8107337 5.14859633,12.2371503 8.7018998,11.2067729 C7.13849225,10.3486994 6.35448934,8.74971896 6.35448934,6.89917482 C6.35448934,4.19630066 8.52026864,2 11.1838093,2 Z" id="路径" fill="#FFFFFF" fill-rule="nonzero"></path>
            <path d="M17.6995402,12.9125817 C19.7986447,12.9125817 21.5,14.7125833 21.5,16.9330065 C21.5,19.1534297 19.7986447,20.9534314 17.6995402,20.9534314 C15.6015852,20.9534314 13.9002299,19.1534297 13.9002299,16.9330065 C13.9002299,14.7125833 15.6015852,12.9125817 17.6995402,12.9125817 Z M18.1271781,14.6356209 L18.1271781,15.7510016 C15.6878025,16.3460245 15.5291626,19.2303921 15.5291626,19.2303921 C16.5568732,16.9766568 18.1340755,17.1972059 18.1340755,17.1972059 L18.1340755,18.3183301 L19.8710673,16.4838677 L18.1271781,14.6356209 Z" id="形状" fill="#FFFFFF" fill-rule="nonzero"></path>
        </g>
    </g>
</svg>