<?xml version="1.0" encoding="UTF-8"?>
<svg width="24px" height="24px" viewBox="0 0 24 24" version="1.1" xmlns="http://www.w3.org/2000/svg" xmlns:xlink="http://www.w3.org/1999/xlink">
    <title>icon/24px/客户群群发</title>
    <g id="控件" stroke="none" stroke-width="1" fill="none" fill-rule="evenodd">
        <g id="icon/24px/客户群群发">
            <rect id="矩形" fill="#D8D8D8" opacity="0" x="0" y="0" width="24" height="24"></rect>
            <path d="M11.0371004,3 C13.5008812,3 15.5056563,5.02575387 15.504307,7.51417713 C15.504307,9.21948293 14.7095963,10.6957044 13.2614783,11.486473 C13.7294841,11.6219433 14.3387917,11.9095364 15.0885011,12.3483523 L15.2514031,12.4446667 C15.3432371,12.4995589 15.4037579,12.594602 15.4146578,12.701045 C15.4255576,12.807488 15.385556,12.9128275 15.3067538,12.9851978 L15.2685033,13.0158024 C14.4238428,13.5918888 12.9811248,14.6553983 12.9082238,16.9520928 C12.8596232,18.4832225 13.4675808,19.6443966 14.7316466,20.4356154 C14.8211953,20.5341893 14.8442206,20.676296 14.7903809,20.7981093 C14.7365411,20.9199225 14.6159592,20.9985395 14.4827935,20.9986498 L13.2880286,20.9986498 L13.0585257,20.9990999 L11.5375067,20.9990999 L11.3327541,20.9995499 L9.45488069,21 L4.6717709,21 L4.66502082,20.9995499 C3.05220065,20.986948 3,20.1736761 3,19.4108116 C3,15.7324099 5.45118064,12.4379157 8.73982174,11.4882733 C7.29305367,10.6961544 6.56719458,9.2226334 6.56719458,7.51642746 C6.56719458,5.0253038 8.57196964,3 11.0371004,3 Z M16.6990712,5.85072762 C18.1687896,6.12571887 19.0940012,7.64559685 19.0940012,8.9593439 C19.0940012,10.086763 18.600345,11.0809621 17.8501856,11.6660499 C17.9968874,11.7056558 18.1453893,11.7470621 18.3109914,11.7988198 C19.4544557,12.1894784 20.0592632,12.6548482 20.125414,13.1953793 L20.1308141,13.2583888 C20.1331092,13.3110832 20.1045145,13.3602899 20.0575991,13.3843797 C20.0106838,13.4084694 19.9540381,13.4030312 19.9125614,13.3704556 C19.5503069,13.0851128 19.1106514,12.8609792 18.5931449,12.6971546 C17.9824873,12.5036256 17.2917286,12.4451168 16.519969,12.5207281 C16.2932396,12.2881713 16.0415087,12.0813855 15.7693596,11.9041356 C15.6460256,11.8218408 15.5196343,11.7442241 15.3904549,11.6714507 L15.1969524,11.5670351 C15.1289157,11.5320099 15.0833411,11.4648027 15.0759703,11.3886274 C15.0685995,11.312452 15.1004431,11.2377517 15.160502,11.1903285 C15.6789085,10.7807671 16.0564632,10.0980147 16.2927161,9.14162125 C16.4628183,8.21178177 16.4587682,7.33775067 16.2927161,6.77786669 C16.0888636,6.28009201 15.9264116,5.70580587 16.6990712,5.85072762 L16.6990712,5.85072762 Z" id="形状" fill="#FFFFFF" fill-rule="nonzero"></path>
            <path d="M17.39973,13.3515527 C18.6859022,13.3514723 19.8744172,14.0376571 20.5175729,15.1516279 C21.1607286,16.2655987 21.1608144,17.6381168 20.5177979,18.752168 C19.8747814,19.8662192 18.6863522,20.5525525 17.40018,20.5526329 C16.1140078,20.5526329 14.9255357,19.8663738 14.2824496,18.7523629 C13.6393635,17.6383519 13.6393635,16.2658338 14.2824496,15.1518228 C14.9255357,14.0378118 16.1140078,13.3515527 17.40018,13.3515527 L17.39973,13.3515527 Z M17.804735,15.1122168 L17.804735,15.893534 C15.4935062,16.426414 15.3432043,19.0093514 15.3432043,19.0093514 C16.3170164,16.9912487 17.8114851,17.1888283 17.8114851,17.1888283 L17.8114851,17.9755463 C17.8116347,18.0117218 17.8334235,18.044293 17.8668003,18.0582346 C17.9001771,18.0721763 17.9386562,18.0647793 17.964487,18.0394559 L19.2978537,16.7090564 C19.340173,16.6668381 19.3639567,16.6095137 19.3639567,16.5497325 C19.3639567,16.4899512 19.340173,16.4326268 19.2978537,16.3904086 L17.958637,15.0487573 C17.9329461,15.0228513 17.8941598,15.0150191 17.8604315,15.0289266 C17.8267033,15.042834 17.8047059,15.0757295 17.804735,15.1122168 L17.804735,15.1122168 Z" id="形状" fill="#FFFFFF" fill-rule="nonzero"></path>
        </g>
    </g>
</svg>