<?xml version="1.0" encoding="UTF-8"?>
<svg width="16px" height="16px" viewBox="0 0 16 16" version="1.1" xmlns="http://www.w3.org/2000/svg" xmlns:xlink="http://www.w3.org/1999/xlink">
    <title>icon/16px/客户群</title>
    <g id="控件" stroke="none" stroke-width="1" fill="none" fill-rule="evenodd">
        <g id="icon/16px/客户群" fill="#FFFFFF" fill-rule="nonzero">
            <path d="M11.8413124,7.18101455 C12.6768329,6.84093032 13.2700368,6.0020559 13.2700368,5.02228943 C13.2700368,3.74130551 12.2582859,2.7 11.0136592,2.7 C10.4928356,2.7 9.98459994,2.88785605 9.58178775,3.22794028 L9.52199531,3.27814318 C10.2804151,3.79960567 10.7351523,4.67572741 10.7335788,5.61338821 C10.7335788,6.42473201 10.396853,7.15348392 9.86344158,7.66684916 C11.4385002,8.39722053 12.5352193,10.0263859 12.5352193,11.9195214 C12.5352193,12.1138553 12.5226314,12.3049502 12.5006026,12.4928063 L12.511617,12.4911868 C13.0639103,12.4247894 13.8537998,12.3000919 14.4926347,12.0717496 C14.895447,11.9130436 15.1,11.6523124 15.1,11.2976531 C15.0984266,9.27172282 13.6980248,7.57616003 11.8413124,7.18101455 Z M6.14214932,7.66684916 C5.60716438,7.15348392 5.27201205,6.42473201 5.27201205,5.61338821 C5.27201205,4.61904671 5.77395379,3.74778331 6.53080013,3.24899311 C6.52607967,3.24251531 6.51978574,3.23765697 6.51349179,3.23279862 C6.50719786,3.22632083 6.50405089,3.21822358 6.49775694,3.21336524 C6.09651825,2.8829977 5.59929695,2.70161945 5.08476732,2.70161945 C3.8401406,2.70161945 2.82838969,3.74292496 2.82838969,5.02390888 C2.82838969,6.00367534 3.42159357,6.84093032 4.25711416,7.182634 C2.40040174,7.57777947 1,9.27334226 1,11.300892 C1,11.6555513 1.20455306,11.9162825 1.61365919,12.076608 C2.21787747,12.2919946 2.96842987,12.4150727 3.50498828,12.4830896 C3.48295949,12.296853 3.4719451,12.1089969 3.47037161,11.9211409 C3.47037161,10.0263859 4.56866421,8.39883997 6.14214932,7.66684916 L6.14214932,7.66684916 Z M8.85955808,7.86280246 C9.69507868,7.52271822 10.2882826,6.6838438 10.2882826,5.70407733 C10.2882826,4.42309341 9.27653163,3.3817879 8.03190492,3.3817879 C6.7872782,3.3817879 5.77552728,4.42309341 5.77552728,5.70407733 C5.77552728,6.6838438 6.36873117,7.52109878 7.20425176,7.86280246 C5.34753934,8.25794793 3.9471376,9.95351072 3.9471376,11.9810605 C3.9471376,12.4733729 4.28386341,12.6369372 4.55292936,12.7681126 L4.56866421,12.7745904 C5.6575159,13.1697358 7.23100101,13.275 7.98942082,13.275 C8.81707399,13.275 10.4361902,13.1373469 11.5108805,12.755157 C11.9136927,12.596451 12.1182457,12.3357198 12.1182457,11.9810605 C12.1182457,9.95351072 10.717844,8.25794793 8.85955808,7.86280246 L8.85955808,7.86280246 Z" id="形状"></path>
        </g>
    </g>
</svg>