<?xml version="1.0" encoding="UTF-8"?>
<svg width="24px" height="24px" viewBox="0 0 24 24" version="1.1" xmlns="http://www.w3.org/2000/svg" xmlns:xlink="http://www.w3.org/1999/xlink">
    <title>icon/24px/拉群活码</title>
    <g id="控件" stroke="none" stroke-width="1" fill="none" fill-rule="evenodd">
        <g id="icon/24px/拉群活码">
            <rect id="矩形" fill="#D8D8D8" opacity="0" x="0" y="0" width="24" height="24"></rect>
            <path d="M13.000006,3 L13.000006,11 L20.999982,11 L20.999982,3 L13.000006,3 Z M19.999985,10.000008 L13.999967,10.000008 L13.999967,3.99999601 L19.999985,3.99999601 L19.999985,10.000008 Z M11.000012,12.999996 L11.000012,20.999996 L3,20.999996 L3,12.999996 L11.000012,12.999996 Z M9.99999402,3.999993 L9.99999402,9.999993 L3.99999402,9.999993 L3.99999402,3.999993 L9.99999402,3.999993 Z M3.99999701,14.00001 L10.000015,14.00001 L10.000015,20.000022 L3.99999701,20.000022 L3.99999701,14.00001 Z M19.999982,3.999993 L13.999982,3.999993 L13.999982,9.999993 L19.999982,9.999993 L19.999982,3.999993 Z M3,11 L11.000012,11 L11.000012,3 L3,3 L3,11 Z M3.99999701,3.99999601 L10.000015,3.99999601 L10.000015,10.000008 L3.99999701,10.000008 L3.99999701,3.99999601 Z M18.999988,20.999998 L21,20.999998 L21,16.999998 L18.999988,16.999998 L18.999988,20.999998 Z M9.99999402,13.999989 L9.99999402,19.999989 L3.99999402,19.999989 L3.99999402,13.999989 L9.99999402,13.999989 Z M21,12.999996 L21,14.999996 L18.999988,14.999996 L18.999988,12.999996 L21,12.999996 Z M15.999979,12.999996 L13.000006,12.999996 L13.000006,15.999996 L15.999979,15.999996 L15.999979,16.999996 L17.999991,16.999996 L17.999991,14.999996 L15.999979,14.999996 L15.999979,12.999996 Z M13.000006,21 L16.999976,21 L16.999976,18.99999 L13.000006,18.99999 L13.000006,21 Z" id="形状" fill="#FFFFFF" fill-rule="nonzero"></path>
        </g>
    </g>
</svg>