<?xml version="1.0" encoding="UTF-8"?>
<svg width="24px" height="24px" viewBox="0 0 24 24" version="1.1" xmlns="http://www.w3.org/2000/svg" xmlns:xlink="http://www.w3.org/1999/xlink">
    <title>icon/24px/名片</title>
    <g id="控件" stroke="none" stroke-width="1" fill="none" fill-rule="evenodd">
        <g id="icon/24px/名片" fill="#FFFFFF">
            <rect id="矩形" fill-opacity="0.01" x="0" y="0" width="24" height="24"></rect>
            <g id="编组" transform="translate(1.916667, 3.583333)" fill-rule="nonzero">
                <path d="M16.6666667,1.17239551e-13 C18.5996633,1.17239551e-13 20.1666667,1.56700338 20.1666667,3.5 L20.1666667,3.5 L20.1666667,13.3333333 C20.1666667,15.26633 18.5996633,16.8333333 16.6666667,16.8333333 L16.6666667,16.8333333 L3.5,16.8333333 C1.56700338,16.8333333 7.10542736e-14,15.26633 7.10542736e-14,13.3333333 L7.10542736e-14,13.3333333 L7.10542736e-14,3.5 C7.10542736e-14,1.56700338 1.56700338,1.17239551e-13 3.5,1.17239551e-13 L3.5,1.17239551e-13 Z M15.0833333,11 L5.08333333,11 L4.98156278,11.0068466 C4.61548721,11.056509 4.33333333,11.3703042 4.33333333,11.75 C4.33333333,12.1642136 4.66911977,12.5 5.08333333,12.5 L5.08333333,12.5 L15.0833333,12.5 L15.1851039,12.4931534 C15.5511795,12.443491 15.8333333,12.1296958 15.8333333,11.75 C15.8333333,11.3357864 15.4975469,11 15.0833333,11 L15.0833333,11 Z M15.0833333,4.33333333 L11.75,4.33333333 L11.6482294,4.34017995 C11.2821539,4.38984237 11,4.70363757 11,5.08333333 L11,5.08333333 L11,8.41666667 L11.0068466,8.51843722 C11.056509,8.88451279 11.3703042,9.16666667 11.75,9.16666667 L11.75,9.16666667 L15.0833333,9.16666667 L15.1851039,9.15982005 C15.5511795,9.11015763 15.8333333,8.79636243 15.8333333,8.41666667 L15.8333333,8.41666667 L15.8333333,5.08333333 L15.8264867,4.98156278 C15.7768243,4.61548721 15.4630291,4.33333333 15.0833333,4.33333333 L15.0833333,4.33333333 Z M7.58333333,7.66666667 L5.08333333,7.66666667 L4.98156278,7.67351328 C4.61548721,7.72317571 4.33333333,8.0369709 4.33333333,8.41666667 C4.33333333,8.83088023 4.66911977,9.16666667 5.08333333,9.16666667 L5.08333333,9.16666667 L7.58333333,9.16666667 L7.68510389,9.15982005 C8.05117945,9.11015763 8.33333333,8.79636243 8.33333333,8.41666667 C8.33333333,8.0024531 7.9975469,7.66666667 7.58333333,7.66666667 L7.58333333,7.66666667 Z M7.58333333,4.33333333 L5.08333333,4.33333333 L4.98156278,4.34017995 C4.61548721,4.38984237 4.33333333,4.70363757 4.33333333,5.08333333 C4.33333333,5.4975469 4.66911977,5.83333333 5.08333333,5.83333333 L5.08333333,5.83333333 L7.58333333,5.83333333 L7.68510389,5.82648672 C8.05117945,5.77682429 8.33333333,5.4630291 8.33333333,5.08333333 C8.33333333,4.66911977 7.9975469,4.33333333 7.58333333,4.33333333 L7.58333333,4.33333333 Z" id="形状结合"></path>
            </g>
        </g>
    </g>
</svg>