<?xml version="1.0" encoding="UTF-8"?>
<svg width="24px" height="24px" viewBox="0 0 24 24" version="1.1" xmlns="http://www.w3.org/2000/svg" xmlns:xlink="http://www.w3.org/1999/xlink">
    <title>icon/24px/一键拉群</title>
    <g id="控件" stroke="none" stroke-width="1" fill="none" fill-rule="evenodd">
        <g id="icon/24px/一键拉群">
            <rect id="矩形" fill="#D8D8D8" opacity="0" x="0" y="0" width="24" height="24"></rect>
            <path d="M9.29082649,22.2829959 C7.82568159,21.6232868 6.06658903,19.4222703 4.01354882,15.6799464 C3.89139942,14.1437358 4.59517862,13.6684156 6.12488642,14.2539857 C7.49618953,14.8711926 7.98563597,16.1651988 7.98563597,16.1651988 C7.81680534,10.210417 7.83315576,6.85763575 8.03468725,6.10685487 C8.33698449,4.98068356 9.81592525,4.50251052 10.5145403,6.10685487 C10.6034522,7.59083796 10.6679328,9.71346208 10.7079819,12.4747273 C10.7079819,12.4747273 12.2413675,10.3847371 14.0456014,12.6205158 C14.0456014,12.6205158 15.3987769,10.3432352 17.2989807,12.7311874 C17.2989807,12.7311874 18.6468245,10.0974166 20,12.9599796 L20,20.9538728 C19.8091511,21.7296803 19.4174518,22.1727213 18.824902,22.2829959 C13.9339966,22.9427051 10.7559714,22.9427051 9.29082649,22.2829959 Z M9.33667877,1 C6.39360212,1 4.00501816,3.39220874 4.00501816,6.34096783 C4.00501816,8.32028645 5.09267693,10.0271827 6.68790978,10.9487365 L6.68790978,9.30036842 C5.82840792,8.54742526 5.33472937,7.46208226 5.33260165,6.32074898 C5.33260165,4.1179589 7.11657529,2.33018725 9.31535213,2.33018725 C11.5194325,2.33488436 13.3027062,4.12117727 13.2991689,6.32074898 C13.2974089,7.43938854 12.8236166,8.50555744 11.9939784,9.25780242 L11.9939784,10.9466082 C13.5838796,10.0207978 14.6672734,8.31602985 14.6672734,6.34203198 C14.6683394,3.39220874 12.2808218,1 9.33667877,1 Z" id="形状" fill="#FFFFFF" fill-rule="nonzero"></path>
        </g>
    </g>
</svg>