<?xml version="1.0" encoding="UTF-8"?>
<svg width="24px" height="24px" viewBox="0 0 24 24" version="1.1" xmlns="http://www.w3.org/2000/svg" xmlns:xlink="http://www.w3.org/1999/xlink">
    <title>icon/24px/新建商机备份</title>
    <g id="控件" stroke="none" stroke-width="1" fill="none" fill-rule="evenodd">
        <g id="编组" fill="#FFFFFF" transform="translate(2.000000, 1.000000)">
            <path d="M17.38,0 L2.62000003,0 C1.17301397,0 0,1.17301397 0,2.62000003 L0,14.1235355 C0,14.97975 0.418367696,15.781944 1.12048011,16.2719862 L8.50048008,21.4228874 C9.40130224,22.0516199 10.5986978,22.0516199 11.4995199,21.4228874 L18.8795199,16.2719862 C19.5816323,15.781944 20,14.97975 20,14.1235355 L20,2.62000003 C20,1.17301397 18.826986,0 17.38,0 Z M2.62000003,2 L17.38,2 C17.7224165,2 18,2.27758347 18,2.62000003 L18,14.1235355 C18,14.3261512 17.900997,14.5159834 17.7348482,14.6319476 L10.3548482,19.7828488 C10.1416766,19.9316328 9.85832343,19.9316328 9.64515176,19.7828488 L2.26515179,14.6319476 C2.09900305,14.5159834 2,14.3261512 2,14.1235355 L2,2.62000003 C2,2.27758347 2.27758347,2 2.62000003,2 Z" id="R" fill-rule="nonzero"></path>
            <path d="M9.79323061,13.0205543 L8.3697848,13.5429371 C8.05870054,13.6571003 7.71396938,13.4974642 7.59980621,13.1863799 C7.57390175,13.1157926 7.56149581,13.0409652 7.56323451,12.9657948 L7.60097803,11.3340087 C7.60403611,11.2017972 7.56332801,11.0722792 7.48518241,10.9655903 L6.52070681,9.64883252 C6.32489756,9.38150242 6.38287666,9.00605378 6.65020676,8.81024453 C6.70363201,8.77111254 6.76316707,8.74109513 6.82639725,8.72140976 L8.31615401,8.25760587 C8.44813332,8.21651694 8.56187775,8.1311186 8.63816064,8.01584605 L9.49958115,6.71413694 C9.68245307,6.43779566 10.0547189,6.36202377 10.3310602,6.54489569 C10.3982675,6.58937088 10.4558263,6.64692963 10.5003015,6.71413694 L11.361722,8.01584605 C11.4380049,8.1311186 11.5517493,8.21651694 11.6837286,8.25760587 L13.1734854,8.72140976 C13.4898776,8.8199117 13.6665125,9.15624984 13.5680106,9.47264203 C13.5483252,9.53587222 13.5183078,9.59540727 13.4791758,9.64883252 L12.5147002,10.9655903 C12.4365546,11.0722792 12.3958465,11.2017972 12.3989046,11.3340087 L12.4366481,12.9657948 C12.4443107,13.2970771 12.1819652,13.5718462 11.8506829,13.5795088 C11.7755126,13.5812475 11.7006851,13.5688416 11.6300978,13.5429371 L10.206652,13.0205543 C10.0731964,12.9715781 9.92668625,12.9715781 9.79323061,13.0205543 Z" id="R"></path>
        </g>
    </g>
</svg>