<?xml version="1.0" encoding="UTF-8"?>
<svg width="40px" height="40px" viewBox="0 0 40 40" version="1.1" xmlns="http://www.w3.org/2000/svg" xmlns:xlink="http://www.w3.org/1999/xlink">
    <title>icon/40px/pdf</title>
    <g id="控件" stroke="none" stroke-width="1" fill="none" fill-rule="evenodd">
        <g id="icon/40px/pdf">
            <rect id="矩形" fill="#D8D8D8" opacity="0" transform="translate(20.000000, 20.000000) scale(-1, 1) translate(-20.000000, -20.000000) " x="0" y="0" width="40" height="40"></rect>
            <rect id="矩形" fill="#D14343" x="0" y="0" width="40" height="40" rx="4"></rect>
            <g id="文件-excel_file-excel" transform="translate(10.000000, 10.000000)">
                <rect id="矩形" fill-opacity="0.01" fill="#FFFFFF" fill-rule="nonzero" x="0" y="0" width="20" height="20"></rect>
                <polygon id="路径" fill-opacity="0.01" fill="#FFFFFF" fill-rule="nonzero" points="20 0 0 0 0 20 20 20"></polygon>
                <path d="M4.16666667,1.66666667 L12.5,1.66666667 L16.6666667,5.83333333 L16.6666667,17.5 C16.6666667,17.96025 16.2935833,18.3333333 15.8333333,18.3333333 L4.16666667,18.3333333 C3.70642917,18.3333333 3.33333333,17.96025 3.33333333,17.5 L3.33333333,2.5 C3.33333333,2.0397625 3.70642917,1.66666667 4.16666667,1.66666667 Z" id="路径" stroke="#FFFFFF" stroke-width="1.5" stroke-linejoin="round"></path>
            </g>
            <g id="pdf文件" transform="translate(16.000000, 17.000000)" fill="#FFFFFF" fill-rule="nonzero" stroke="#FFFFFF" stroke-width="0.3">
                <path d="M3.57644494,0.00240772565 C3.80327642,0.0047196168 4.01639193,0.111570071 4.15415045,0.292053913 C4.44300321,0.692948291 4.42073565,1.5395871 4.04306286,2.7871203 C4.3988133,3.45461023 4.86460373,4.0571207 5.42077415,4.56922108 C5.88739207,4.48014736 6.35400999,4.41324812 6.82050281,4.41324812 C7.86482623,4.43567314 8.02032384,4.92576652 7.99805628,5.21528743 C7.99805628,5.97272724 7.26485317,5.97272724 6.88718038,5.97272724 C6.28670692,5.92812774 5.70962691,5.70538081 5.24300899,5.30436115 C4.33204071,5.50480834 3.46560755,5.79445453 2.59904929,6.15087468 C1.91038129,7.3762334 1.26599821,8 0.710935556,8 C0.599847966,8 0.466492819,7.97770025 0.377672786,7.910801 C0.133230049,7.79942753 1.28785871e-14,7.55438084 1.28785871e-14,7.30945943 C1.28785871e-14,7.10901225 0.0444100163,6.55201962 2.15519932,5.63860684 C2.6439597,4.7474938 3.02175759,3.83458214 3.3327528,2.87619402 C3.06566721,2.34150114 2.4879617,1.02719398 2.88765185,0.358827883 C3.02100699,0.113781195 3.28796749,-0.0198920241 3.57644494,0.00240772565 Z M3.75446031,3.85951276 L3.73219275,3.92315474 C3.53203493,4.43554787 3.31010995,4.94794099 3.06566721,5.43803437 L3.04665221,5.47912604 L3.11020232,5.46033412 C3.60429718,5.28121978 4.10883894,5.13244572 4.62101857,5.01484024 L4.67868904,5.00369037 L4.66542858,4.99254049 C4.33216581,4.65842008 4.0210455,4.27919906 3.77660276,3.90098027 L3.75446031,3.85951276 Z" id="形状结合"></path>
            </g>
        </g>
    </g>
</svg>