<?xml version="1.0" encoding="UTF-8"?>
<svg width="24px" height="24px" viewBox="0 0 24 24" version="1.1" xmlns="http://www.w3.org/2000/svg" xmlns:xlink="http://www.w3.org/1999/xlink">
    <title>icon/24px/朋友圈备份</title>
    <g id="控件" stroke="none" stroke-width="1" fill="none" fill-rule="evenodd">
        <g id="icon/24px/朋友圈">
            <rect id="矩形" fill-opacity="0.01" fill="#FFFFFF" fill-rule="nonzero" x="0" y="0" width="24" height="24"></rect>
            <path d="M12,2.91666667 C6.98341144,2.91666667 2.91666667,6.98341144 2.91666667,12 C2.91666667,17.0165886 6.98341144,21.0833333 12,21.0833333 C17.0165886,21.0833333 21.0833333,17.0165886 21.0833333,12 C21.0833333,6.98341144 17.0165886,2.91666667 12,2.91666667 Z M12,4.41666667 C16.1881614,4.41666667 19.5833333,7.81183856 19.5833333,12 C19.5833333,16.1881614 16.1881614,19.5833333 12,19.5833333 C7.81183856,19.5833333 4.41666667,16.1881614 4.41666667,12 C4.41666667,7.81183856 7.81183856,4.41666667 12,4.41666667 Z" id="路径" fill="#FFFFFF" fill-rule="nonzero"></path>
            <path d="M14.9166667,4.91666667 L14.9166667,12 L14.9166667,4.91666667 Z" id="路径" fill="#333333"></path>
            <path d="M14.9166667,4.16666667 C15.2963624,4.16666667 15.6101576,4.44882055 15.6598201,4.81489611 L15.6666667,4.91666667 L15.6666667,12 C15.6666667,12.4142136 15.3308802,12.75 14.9166667,12.75 C14.5369709,12.75 14.2231757,12.4678461 14.1735133,12.1017706 L14.1666667,12 L14.1666667,4.91666667 C14.1666667,4.5024531 14.5024531,4.16666667 14.9166667,4.16666667 Z" id="路径" fill="#FFFFFF" fill-rule="nonzero"></path>
            <path d="M8.93166667,4.76502083 L14.8242083,10.6575833 L8.93166667,4.76502083 Z" id="路径" fill="#333333"></path>
            <path d="M8.40133752,4.23468981 C8.66760455,3.96842372 9.08426828,3.9442184 9.37787939,4.16207338 L9.46199769,4.23469168 L15.3545394,10.1272542 C15.6474321,10.4201479 15.6474312,10.8950217 15.3545375,11.1879144 C15.0882704,11.4541804 14.6716067,11.4783858 14.3779956,11.2605308 L14.2938773,11.1879125 L8.40133564,5.29534998 C8.10844294,5.00245625 8.10844378,4.52758251 8.40133752,4.23468981 Z" id="路径" fill="#FFFFFF" fill-rule="nonzero"></path>
            <path d="M4.91666667,9.08333333 L12,9.08333333 L4.91666667,9.08333333 Z" id="路径" fill="#333333"></path>
            <path d="M12,8.33333333 C12.4142136,8.33333333 12.75,8.66911977 12.75,9.08333333 C12.75,9.4630291 12.4678461,9.77682429 12.1017706,9.82648672 L12,9.83333333 L4.91666667,9.83333333 C4.5024531,9.83333333 4.16666667,9.4975469 4.16666667,9.08333333 C4.16666667,8.70363757 4.44882055,8.38984237 4.81489611,8.34017995 L4.91666667,8.33333333 L12,8.33333333 Z" id="路径" fill="#FFFFFF" fill-rule="nonzero"></path>
            <path d="M10.485,9.34833333 L4.59245,15.2409167 L10.485,9.34833333 Z" id="路径" fill="#333333"></path>
            <path d="M9.95466841,8.81800475 C10.2475608,8.5251107 10.7224345,8.52510936 11.0153286,8.81800175 C11.2815959,9.08426756 11.3058031,9.50093117 11.0879495,9.79454328 L11.0153316,9.87866192 L5.12278159,15.7712453 C4.8298892,16.0641393 4.35501546,16.0641406 4.06212141,15.7712483 C3.7958541,15.5049824 3.77164687,15.0883188 3.9895005,14.7947067 L4.06211841,14.7105881 L9.95466841,8.81800475 Z" id="路径" fill="#FFFFFF" fill-rule="nonzero"></path>
            <path d="M9.08333333,12.4166667 L9.08333333,19.5 L9.08333333,12.4166667 Z" id="路径" fill="#333333"></path>
            <path d="M9.08333333,11.6666667 C9.4630291,11.6666667 9.77682429,11.9488205 9.82648672,12.3148961 L9.83333333,12.4166667 L9.83333333,19.5 C9.83333333,19.9142136 9.4975469,20.25 9.08333333,20.25 C8.70363757,20.25 8.38984237,19.9678461 8.34017995,19.6017706 L8.33333333,19.5 L8.33333333,12.4166667 C8.33333333,12.0024531 8.66911977,11.6666667 9.08333333,11.6666667 Z" id="路径" fill="#FFFFFF" fill-rule="nonzero"></path>
            <path d="M9.34833333,13.515 L15.240875,19.4075833 L9.34833333,13.515 Z" id="路径" fill="#333333"></path>
            <path d="M8.81800512,12.984668 C9.08427263,12.7184024 9.50093639,12.6941978 9.79454712,12.9120533 L9.87866529,12.9846718 L15.771207,18.8772551 C16.0640991,19.1701494 16.0640975,19.6450231 15.7712032,19.9379153 C15.5049357,20.2041809 15.0882719,20.2283855 14.7946612,20.01053 L14.710543,19.9379115 L8.81800137,14.0453282 C8.52510919,13.752434 8.52511087,13.2775602 8.81800512,12.984668 Z" id="路径" fill="#FFFFFF" fill-rule="nonzero"></path>
            <path d="M12,14.9166667 L19.5,14.9166667 L12,14.9166667 Z" id="路径" fill="#333333"></path>
            <path d="M19.5,14.1666667 C19.9142136,14.1666667 20.25,14.5024531 20.25,14.9166667 C20.25,15.2963624 19.9678461,15.6101576 19.6017706,15.6598201 L19.5,15.6666667 L12,15.6666667 C11.5857864,15.6666667 11.25,15.3308802 11.25,14.9166667 C11.25,14.5369709 11.5321539,14.2231757 11.8982294,14.1735133 L12,14.1666667 L19.5,14.1666667 Z" id="路径" fill="#FFFFFF" fill-rule="nonzero"></path>
            <path d="M19.6516667,8.93166667 L13.759125,14.82425 L19.6516667,8.93166667 Z" id="路径" fill="#333333"></path>
            <path d="M19.1213347,8.40133846 C19.4142269,8.1084442 19.8891006,8.10844252 20.1819949,8.40133471 C20.4482624,8.66760033 20.4724699,9.08426392 20.2546165,9.37787619 L20.1819986,9.46199488 L14.289457,15.3545782 C13.9965648,15.6474725 13.521691,15.6474741 13.2287968,15.354582 C12.9625293,15.0883163 12.9383218,14.6716527 13.1561752,14.3780405 L13.228793,14.2939218 L19.1213347,8.40133846 Z" id="路径" fill="#FFFFFF" fill-rule="nonzero"></path>
            <path d="M12,14.9166667 C13.6108333,14.9166667 14.9166667,13.6108333 14.9166667,12 C14.9166667,10.3891667 13.6108333,9.08333333 12,9.08333333 C10.3891667,9.08333333 9.08333333,10.3891667 9.08333333,12 C9.08333333,13.6108333 10.3891667,14.9166667 12,14.9166667 Z" id="路径" stroke="#FFFFFF" stroke-width="1.5" stroke-linecap="round" stroke-linejoin="round" fill-rule="nonzero"></path>
        </g>
    </g>
</svg>