<?xml version="1.0" encoding="UTF-8"?>
<svg width="24px" height="24px" viewBox="0 0 24 24" version="1.1" xmlns="http://www.w3.org/2000/svg" xmlns:xlink="http://www.w3.org/1999/xlink">
    <title>icon/24px/领取</title>
    <g id="控件" stroke="none" stroke-width="1" fill="none" fill-rule="evenodd">
        <g id="icon/24px/领取备份" fill="#FFFFFF" fill-rule="nonzero">
            <g id="icon/14px/like" transform="translate(2.000000, 3.500000)">
                <path d="M14.233317,-0.994590041 C12.6391567,-0.929831309 11.1564368,-0.286585032 10.0316109,0.778871299 L10,0.809 L9.9683891,0.778871299 C8.7810729,-0.34577705 7.19499207,-1 5.5,-1 C1.91015501,-1 -1,1.91016049 -1,5.5 C-1,10.7233945 4.66438287,16.4437689 9.68464271,18.112073 C9.88937656,18.180109 10.1106234,18.180109 10.3153573,18.112073 C15.3356171,16.4437689 21,10.7233945 21,5.5 C21,1.91016525 18.0898347,-1 14.5,-1 L14.233317,-0.994590041 Z M14.5,1 C16.9852653,1 19,3.01473475 19,5.5 L18.9946699,5.7393279 C18.8176458,9.74250033 14.2634292,14.4390956 10.1729628,16.0374399 L10,16.102 L9.82703715,16.0374399 C5.6547615,14.4071287 1,9.55339721 1,5.5 C1,3.01472915 3.01472535,1 5.5,1 C6.98341094,1 8.34381102,1.72184562 9.1823842,2.91266419 C9.58071275,3.47831194 10.4192873,3.47831194 10.8176158,2.91266419 C11.656189,1.72184562 13.0165891,1 14.5,1 Z" id="路径"></path>
            </g>
        </g>
    </g>
</svg>