<?xml version="1.0" encoding="UTF-8"?>
<svg width="24px" height="24px" viewBox="0 0 24 24" version="1.1" xmlns="http://www.w3.org/2000/svg" xmlns:xlink="http://www.w3.org/1999/xlink">
    <title>icon/24px/setting</title>
    <g id="控件" stroke="none" stroke-width="1" fill="none" fill-rule="evenodd">
        <g id="icon/24px/setting" fill="#FFFFFF" fill-rule="nonzero">
            <g>
                <rect id="矩形" fill-opacity="0.01" x="0" y="0" width="24" height="24"></rect>
                <path d="M13.36365,2 L13.36365,4.392665 C14.4824,4.59186 15.51785,5.0318 16.4145,5.657 L18.10685,3.964695 L20.0353,5.89315 L18.343,7.5855 C18.9682,8.48215 19.40815,9.5176 19.60735,10.63635 L22,10.63635 L22,13.36365 L19.60735,13.36365 C19.40815,14.4824 18.9682,15.51785 18.343,16.4145 L20.0353,18.10685 L18.10685,20.0353 L16.4145,18.343 C15.51785,18.9682 14.4824,19.40815 13.36365,19.60735 L13.36365,22 L10.63635,22 L10.63635,19.60735 C9.5176,19.40815 8.48215,18.9682 7.5855,18.343 L5.89315,20.0353 L3.964695,18.10685 L5.657,16.4145 C5.0318,15.51785 4.59186,14.4824 4.392665,13.36365 L2,13.36365 L2,10.63635 L4.392665,10.63635 C4.59186,9.5176 5.0318,8.48215 5.657,7.5855 L3.964695,5.89315 L5.89315,3.964695 L7.5855,5.657 C8.48215,5.0318 9.5176,4.59186 10.63635,4.392665 L10.63635,2 L13.36365,2 Z M12.2857143,8.85714286 C10.3921829,8.85714286 8.85714286,10.3921829 8.85714286,12.2857143 C8.85714286,14.1792457 10.3921829,15.7142857 12.2857143,15.7142857 C14.1792457,15.7142857 15.7142857,14.1792457 15.7142857,12.2857143 C15.7142857,10.3921829 14.1792457,8.85714286 12.2857143,8.85714286 Z" id="形状结合" stroke="#FFFFFF" stroke-width="1.5" stroke-linejoin="round"></path>
            </g>
        </g>
    </g>
</svg>