<?xml version="1.0" encoding="UTF-8"?>
<svg width="24px" height="24px" viewBox="0 0 24 24" version="1.1" xmlns="http://www.w3.org/2000/svg" xmlns:xlink="http://www.w3.org/1999/xlink">
    <title>icon_clear</title>
    <g id="控件" stroke="none" stroke-width="1" fill="none" fill-rule="evenodd">
        <g id="icon/24px/转客户" fill="#FFFFFF" fill-rule="nonzero">
            <g id="icon_clear">
                <rect id="矩形" fill-opacity="0.01" x="0" y="0" width="24" height="24"></rect>
                <g id="编组-2" transform="translate(3.000000, 3.000000)">
                    <path d="M18,6 C18.5522847,6 19,6.44771525 19,7 C19,7.51283584 18.6139598,7.93550716 18.1166211,7.99327227 L18,8 L0,8 C-0.55228475,8 -1,7.55228475 -1,7 C-1,6.48716416 -0.61395981,6.06449284 -0.116621125,6.00672773 L0,6 L18,6 Z" id="路径"></path>
                    <path d="M18,10 C18.5522847,10 19,10.4477153 19,11 C19,11.5128358 18.6139598,11.9355072 18.1166211,11.9932723 L18,12 L0,12 C-0.55228475,12 -1,11.5522847 -1,11 C-1,10.4871642 -0.61395981,10.0644928 -0.116621125,10.0067277 L0,10 L18,10 Z" id="路径"></path>
                    <path d="M10.2928932,-0.707106781 C10.6533772,-1.06759074 11.2206082,-1.09532028 11.6128994,-0.790295388 L11.7071068,-0.707106781 L18.7071068,6.29289322 C19.0976311,6.68341751 19.0976311,7.31658249 18.7071068,7.70710678 C18.3466228,8.06759074 17.7793918,8.09532028 17.3871006,7.79029539 L17.2928932,7.70710678 L10.2928932,0.707106781 C9.90236893,0.316582489 9.90236893,-0.316582489 10.2928932,-0.707106781 Z" id="路径"></path>
                    <path d="M-0.707106781,10.2928932 C-0.34662282,9.93240926 0.220608236,9.90467972 0.612899443,10.2097046 L0.707106781,10.2928932 L7.70710678,17.2928932 C8.09763107,17.6834175 8.09763107,18.3165825 7.70710678,18.7071068 C7.34662282,19.0675907 6.77939176,19.0953203 6.38710056,18.7902954 L6.29289322,18.7071068 L-0.707106781,11.7071068 C-1.09763107,11.3165825 -1.09763107,10.6834175 -0.707106781,10.2928932 Z" id="路径"></path>
                </g>
            </g>
        </g>
    </g>
</svg>