<?xml version="1.0" encoding="UTF-8"?>
<svg width="40px" height="40px" viewBox="0 0 40 40" version="1.1" xmlns="http://www.w3.org/2000/svg" xmlns:xlink="http://www.w3.org/1999/xlink">
    <title>icon/40px/word</title>
    <g id="控件" stroke="none" stroke-width="1" fill="none" fill-rule="evenodd">
        <g id="icon/40px/word">
            <rect id="矩形" fill="#195BBF" x="0" y="0" width="40" height="40" rx="4"></rect>
            <g id="文件-word_file-word" transform="translate(10.000000, 10.000000)">
                <rect id="矩形" fill-opacity="0.01" fill="#FFFFFF" fill-rule="nonzero" x="0" y="0" width="20" height="20"></rect>
                <polygon id="路径" fill-opacity="0.01" fill="#FFFFFF" fill-rule="nonzero" points="20 0 0 0 0 20 20 20"></polygon>
                <path d="M4.16666667,1.66666667 L12.5,1.66666667 L16.6666667,5.83333333 L16.6666667,17.5 C16.6666667,17.96025 16.2935833,18.3333333 15.8333333,18.3333333 L4.16666667,18.3333333 C3.70642917,18.3333333 3.33333333,17.96025 3.33333333,17.5 L3.33333333,2.5 C3.33333333,2.0397625 3.70642917,1.66666667 4.16666667,1.66666667 Z" id="路径" stroke="#FFFFFF" stroke-width="1.5" stroke-linejoin="round"></path>
                <polyline id="路径" stroke="#FFFFFF" stroke-width="1.5" stroke-linecap="round" stroke-linejoin="round" points="6.670125 8.33333333 7.920125 14.1666667 10.0034583 10 12.0867917 14.1666667 13.3367917 8.33333333"></polyline>
            </g>
        </g>
    </g>
</svg>