<?xml version="1.0" encoding="UTF-8"?>
<svg width="24px" height="24px" viewBox="0 0 24 24" version="1.1" xmlns="http://www.w3.org/2000/svg" xmlns:xlink="http://www.w3.org/1999/xlink">
    <title>icon/24px/写跟进</title>
    <g id="控件" stroke="none" stroke-width="1" fill="none" fill-rule="evenodd">
        <g id="icon/24px/写跟进备份" fill="#FFFFFF" fill-rule="nonzero">
            <g id="编组" transform="translate(3.000000, 3.000000)">
                <path d="M11.25,-1 C11.8022847,-1 12.25,-0.55228475 12.25,0 C12.25,0.512835839 11.8639598,0.935507161 11.3666211,0.993272269 L11.25,1 L2,1 C1.48716416,1 1.06449284,1.38604019 1.00672773,1.88337887 L1,2 L1,16 C1,16.5128358 1.38604019,16.9355072 1.88337887,16.9932723 L2,17 L16,17 C16.5128358,17 16.9355072,16.6139598 16.9932723,16.1166211 L17,16 L17,7.84741963 C17,7.29513488 17.4477153,6.84741963 18,6.84741963 C18.5128358,6.84741963 18.9355072,7.23345982 18.9932723,7.7307985 L19,7.84741963 L19,16 C19,17.5976809 17.75108,18.9036609 16.1762728,18.9949073 L16,19 L2,19 C0.402319117,19 -0.903660879,17.75108 -0.994907307,16.1762728 L-1,16 L-1,2 C-1,0.402319117 0.248919964,-0.903660879 1.82372721,-0.994907307 L2,-1 L11.25,-1 Z" id="L"></path>
                <path d="M16.9338755,-0.29936587 C17.3258916,-0.68839267 17.9590519,-0.685969394 18.3480787,-0.293953331 C18.7071804,0.0679076502 18.7327388,0.635240679 18.4262147,1.02636161 L18.3426662,1.12024987 L11.9543953,7.45980787 C11.5623793,7.84883467 10.9292189,7.8464114 10.5401921,7.45439533 C10.1810905,7.09253435 10.1555321,6.52520132 10.4620561,6.13408039 L10.5456047,6.04019213 L16.9338755,-0.29936587 Z" id="P"></path>
            </g>
        </g>
    </g>
</svg>