<?xml version="1.0" encoding="UTF-8"?>
<svg width="24px" height="24px" viewBox="0 0 24 24" version="1.1" xmlns="http://www.w3.org/2000/svg" xmlns:xlink="http://www.w3.org/1999/xlink">
    <title>icon/24px/xiansuo</title>
    <g id="控件" stroke="none" stroke-width="1" fill="none" fill-rule="evenodd">
        <g id="icon/24px/xiansuo">
            <rect id="矩形" fill-rule="nonzero" x="0" y="0" width="24" height="24"></rect>
            <path d="M17.4166667,8.58333333 C18.5212267,8.58333333 19.4166667,7.68789333 19.4166667,6.58333333 C19.4166667,5.47876533 18.5212267,4.58333333 17.4166667,4.58333333 C16.3121067,4.58333333 15.4166667,5.47876533 15.4166667,6.58333333 C15.4166667,7.68789333 16.3121067,8.58333333 17.4166667,8.58333333 Z" id="路径" stroke="#FFFFFF" stroke-width="1.5" fill="#FFFFFF" stroke-linejoin="round"></path>
            <path d="M6.58333333,19.4166667 C7.68789333,19.4166667 8.58333333,18.5212267 8.58333333,17.4166667 C8.58333333,16.3121067 7.68789333,15.4166667 6.58333333,15.4166667 C5.47876533,15.4166667 4.58333333,16.3121067 4.58333333,17.4166667 C4.58333333,18.5212267 5.47876533,19.4166667 6.58333333,19.4166667 Z" id="路径" stroke="#FFFFFF" stroke-width="1.5" fill="#FFFFFF" stroke-linejoin="round"></path>
            <path d="M17.4166667,8.66666667 L17.4166667,16.7934167 C17.4166667,18.2882083 16.204875,19.5 14.7100833,19.5 L14.7100833,19.5 C13.21525,19.5 12.0034583,18.2882083 12.0034583,16.7934167 L12.0034583,7.21008333 C12.0034583,5.7133375 10.790125,4.5 9.29341667,4.5 L9.29341667,4.5 C7.79666667,4.5 6.58333333,5.7133375 6.58333333,7.21008333 L6.58333333,15.3333333" id="路径" stroke="#FFFFFF" stroke-width="2" stroke-linecap="round" stroke-linejoin="round"></path>
        </g>
    </g>
</svg>