<?xml version="1.0" encoding="UTF-8"?>
<svg width="40px" height="40px" viewBox="0 0 40 40" version="1.1" xmlns="http://www.w3.org/2000/svg" xmlns:xlink="http://www.w3.org/1999/xlink">
    <title>icon/40px/文件</title>
    <g id="控件" stroke="none" stroke-width="1" fill="none" fill-rule="evenodd">
        <g id="icon/40px/文件">
            <rect id="矩形" fill="#D8D8D8" opacity="0" transform="translate(20.000000, 20.000000) scale(-1, 1) translate(-20.000000, -20.000000) " x="0" y="0" width="40" height="40"></rect>
            <rect id="矩形" fill="#36B39E" x="0" y="0" width="40" height="40" rx="4"></rect>
            <g id="文件夹-关_folder-close" transform="translate(12.900000, 13.000000)" stroke="#FFFFFF" stroke-linejoin="round" stroke-width="1.5">
                <path d="M0.182051282,0.728205128 C0.182051282,0.326028359 0.508079641,0 0.91025641,0 L5.27948718,0 L7.1,2.18461538 L13.2897436,2.18461538 C13.6919313,2.18461538 14.0179487,2.51063282 14.0179487,2.91282051 L14.0179487,12.3794872 C14.0179487,12.7816749 13.6919313,13.1076923 13.2897436,13.1076923 L0.91025641,13.1076923 C0.508079641,13.1076923 0.182051282,12.7816749 0.182051282,12.3794872 L0.182051282,0.728205128 Z" id="路径"></path>
                <line x1="14.0179487" y1="5.82564103" x2="0.182051282" y2="5.82564103" id="路径"></line>
                <line x1="0.182051282" y1="3.64102564" x2="0.182051282" y2="8.01025641" id="路径" stroke-linecap="round"></line>
                <line x1="14.0179487" y1="3.64102564" x2="14.0179487" y2="8.01025641" id="路径" stroke-linecap="round"></line>
            </g>
        </g>
    </g>
</svg>